<svg xmlns="http://www.w3.org/2000/svg" viewBox="0 0 140 30"><g fill="none" fill-rule="evenodd"><path fill="#FFF" d="M0 0H1670V7072H0z" transform="translate(-247 -4430)"/><g><path fill="#FAFAFA" d="M0 0H1670V480H0z" transform="translate(-247 -4430) translate(0 4334) matrix(1 0 0 -1 0 480)"/><g><g opacity=".99"><path d="M0 0H140V30H0z" transform="translate(-247 -4430) translate(0 4334) translate(223 54) translate(24 42)"/><path fill="#212121" d="M20.52 1l.12.006c.6.064 1.086.59 1.086 1.201v.946c1.73.653 2.382 2.382 2.415 3.654v16.246c0 2.903-2.382 3.947-3.948 3.947H3.947C1.044 27 0 24.651 0 23.053V6.807c0-2.871 2.349-3.915 3.947-3.948H16.28v-.652l.006-.121c.063-.599.589-1.086 1.2-1.086h3.034zm-8.45 5.48c-4.665 0-8.449 3.785-8.449 8.45 0 4.665 3.784 8.449 8.45 8.449.913 0 1.793-.163 2.61-.424l.086-.031c.307-.137.49-.524.37-.883l-.62-1.892c-.13-.359-.522-.587-.913-.456l-.245.076c-.41.117-.827.185-1.289.185-2.773 0-5.024-2.251-5.024-5.024s2.251-5.024 5.024-5.024c.522 0 1.044.098 1.534.26.391.131.782-.064.913-.456l.62-1.892c.13-.391-.065-.783-.457-.913l-.32-.103c-.748-.222-1.519-.321-2.29-.321zm88.211 1.077c1.305 0 2.447.326 3.49.979.262.195.425.424.457.717.028.28-.04.536-.183.788l-.078.126-.26.359c-.229.326-.523.49-.849.49-.196 0-.391-.066-.62-.197-.652-.391-1.272-.587-1.826-.587-1.077 0-1.664.457-1.664 1.24 0 .685.685 1.305 2.12 1.892 2.838 1.207 4.045 2.544 4.078 4.6 0 1.24-.457 2.25-1.337 3.066-.881.816-1.99 1.207-3.393 1.207-1.762 0-3.262-.587-4.47-1.794-.456-.487-.515-.946-.15-1.43l.085-.103.294-.327c.26-.293.554-.456.848-.456.261 0 .522.098.783.326.848.685 1.696 1.044 2.545 1.044.978 0 1.598-.522 1.598-1.403 0-.815-.555-1.337-2.316-2.088-2.545-1.044-3.85-2.544-3.85-4.436 0-2.317 1.958-4.013 4.698-4.013zm-15.952.424c.484 0 .913.366.972.862l.006.117v7.438c0 1.533 1.012 2.544 2.512 2.544 1.472 0 2.463-.962 2.54-2.366l.005-.178V8.96c0-.515.366-.918.862-.972l.117-.007h1.337c.518 0 .922.37.92.87l-.007.109v7.405c0 1.696-.554 3.132-1.63 4.208-1.077 1.077-2.48 1.632-4.176 1.632-1.664 0-3.067-.555-4.143-1.632-1.014-1.013-1.564-2.344-1.626-3.911l-.005-.297V8.96c0-.515.365-.918.861-.972l.117-.007h1.338zM72.78 7.524c2.056 0 3.817.718 5.253 2.12 1.435 1.371 2.153 3.133 2.153 5.188 0 2.088-.685 3.784-2.153 5.22-1.403 1.402-3.197 2.12-5.253 2.12-2.055 0-3.849-.718-5.284-2.12-1.403-1.403-2.12-3.165-2.12-5.22 0-2.055.717-3.817 2.12-5.187 1.468-1.403 3.23-2.12 5.284-2.12zm-9.2.261c.62 0 1.143.13 1.632.392l.049.016.049.017.061.038c.134.102.2.287.137.449l-.035.067-.946 1.794c-.13.261-.424.392-.685.327-.228-.066-.424-.098-.62-.098-.783 0-1.435.391-1.99 1.141-.512.723-.774 1.64-.81 2.778l-.005.289v6.329c0 .26-.098.456-.261.62-.136.135-.295.203-.476.222l-.112.006h-1.63c-.23 0-.425-.065-.588-.228-.136-.136-.226-.318-.253-.506l-.008-.114V8.862c0-.228.098-.424.261-.587.136-.136.295-.204.476-.223l.111-.006h1.566c.228 0 .424.098.587.261.136.136.227.295.253.476l.008.112v.587c0 .26.229 0 .229 0 .783-1.142 1.794-1.697 3-1.697zm49.88-.26c2.056 0 3.785.685 5.187 2.022 1.37 1.37 2.056 3.001 2.056 4.926 0 .548-.398.954-.982 1.006l-.128.005h-9.884c-.065 0-.098 0-.13.033-.033 0-.033.065-.033.163.13.946.554 1.729 1.305 2.414.783.653 1.663.979 2.707.979 1.273 0 2.317-.49 3.197-1.468.261-.294.555-.457.881-.457.157 0 .334.042.516.109l.137.054.848.392c.326.163.522.424.587.717.065.261-.033.522-.228.75-1.436 1.99-3.426 3.002-5.938 3.002-2.055 0-3.85-.718-5.284-2.12-1.403-1.403-2.12-3.165-2.12-5.22 0-2.055.684-3.784 2.087-5.187 1.403-1.403 3.164-2.12 5.22-2.12zm17.486-4.698c.515 0 .917.366.972.836l.007.11v17.453c0 .454-.394.852-.868.907l-.111.006h-1.337c-.485 0-.914-.337-.972-.803l-.007-.11V3.74c0-.484.366-.857.862-.907l.117-.006h1.337zM47.433 7.524c2.055 0 3.817.718 5.187 2.088 1.36 1.298 2.075 2.948 2.147 4.865l.006.322v6.362c0 .484-.394.913-.868.971l-.11.007h-1.11c-.515 0-.89-.337-.94-.882l-.006-.129-.033-1.207c0-.033 0-.098-.065-.098-.032 0-.098.033-.163.13-1.076 1.469-2.577 2.186-4.502 2.186-1.957 0-3.62-.717-4.958-2.12-1.305-1.403-1.99-3.165-1.99-5.187 0-2.055.717-3.817 2.12-5.187 1.468-1.403 3.23-2.12 5.285-2.12zm77.445-4.697c.515 0 .918.366.973.836l.006.11v17.453c0 .454-.394.852-.868.907l-.11.006h-1.338c-.485 0-.913-.337-.972-.803l-.007-.11V3.74c0-.484.366-.857.862-.907l.117-.006h1.337zM36.537 7.492c.816 0 1.599.13 2.349.359.228.065.391.195.49.391.08.136.094.317.059.487l-.027.1-.555 1.599c-.13.326-.424.554-.783.554-.098 0-.163 0-.26-.032-.425-.13-.849-.196-1.306-.196-2.316 0-4.208 1.794-4.208 4.045 0 1.077.457 2.088 1.24 2.871.815.783 1.86 1.207 3.001 1.207.457 0 .88-.065 1.305-.196.098-.032.163-.032.26-.032.32 0 .613.18.743.45l.04.104.49 1.566c.065.196.065.392-.032.587-.098.196-.261.327-.457.392-.75.228-1.566.359-2.349.359-4.176 0-7.568-3.263-7.568-7.308 0-4.012 3.392-7.307 7.568-7.307zM16.442 18.747c-.261-.294-.718-.294-1.012-.033-.293.26-.326.685-.065.979l1.338 1.468c.26.293.717.293 1.01.032.295-.26.295-.717.066-.978zm30.99-8.026c-1.14 0-2.152.425-2.935 1.207-.727.727-1.117 1.623-1.169 2.688l-.006.248.006.243c.052 1.038.442 1.934 1.169 2.66.815.816 1.794 1.208 2.936 1.208s2.12-.424 2.903-1.207c.783-.783 1.175-1.762 1.207-2.904 0-1.141-.424-2.153-1.207-2.936-.815-.815-1.794-1.207-2.903-1.207zm25.348-.032c-1.141 0-2.153.424-2.936 1.207-.783.783-1.174 1.761-1.174 2.936 0 1.174.391 2.153 1.174 2.936.816.815 1.795 1.207 2.936 1.207 1.142 0 2.12-.424 2.904-1.207.783-.783 1.207-1.794 1.207-2.936s-.424-2.153-1.207-2.936c-.783-.816-1.762-1.207-2.904-1.207zm-55.197 5.937c-.358-.163-.782.033-.946.392-.13.326 0 .75.36.913l1.826.816c.359.163.783-.033.946-.392.13-.359 0-.783-.359-.913zm2.219-2.414h-2.023c-.391 0-.718.326-.718.718 0 .391.327.717.718.717h1.99c.424.033.685-.293.718-.685.032-.391-.294-.75-.685-.75zm0-2.675c-.163-.391-.587-.555-.946-.391l-1.86.848c-.359.163-.522.587-.359.946.164.359.588.522.946.359l1.827-.816c.392-.163.555-.587.392-.946zm93.626-1.142c-1.73 0-2.969.816-3.621 2.414-.033.033 0 .098 0 .098.022.022.043.044.075.056l.055.01h7.014c.098 0 .13-.033.13-.033.033 0 .033-.065-.065-.163-.62-1.599-1.827-2.382-3.588-2.382zM17.714 8.666c-.294-.26-.75-.228-1.011.065L15.365 10.2c-.26.294-.26.75.065 1.012l.084.064c.291.189.69.137.928-.13l1.337-1.467c.261-.294.229-.75-.065-1.012z" transform="translate(-247 -4430) translate(0 4334) translate(223 54) translate(24 42)"/></g></g></g></g></svg>