<svg width="161" height="28" viewBox="0 0 161 28" fill="none" xmlns="http://www.w3.org/2000/svg">
<path fill-rule="evenodd" clip-rule="evenodd" d="M160.705 23.6981V0.825809H155.948V9.4962C154.801 7.77542 153.013 6.79735 150.685 6.79735C146.401 6.79735 142.994 10.6431 142.994 15.3996C142.994 20.1559 146.401 24.0356 150.685 24.0356C153.013 24.0356 154.801 23.0571 155.948 21.3368V23.6981H160.705ZM155.948 15.3996C155.948 17.727 154.126 19.4813 151.799 19.4813C149.505 19.4813 147.649 17.6934 147.649 15.3996C147.649 13.1395 149.505 11.3177 151.799 11.3177C154.126 11.3177 155.948 13.1056 155.948 15.3996V15.3996ZM140.93 11.0817C141.504 11.0817 142.077 11.1828 142.651 11.3177V6.99956C142.111 6.89846 141.571 6.79735 141.065 6.79735C139.21 6.79735 137.759 7.60699 136.781 9.02384V7.13463H132.024V23.6981H136.781V15.5345C136.781 12.4646 138.636 11.0817 140.93 11.0817V11.0817ZM129.935 2.86748C129.935 1.31555 128.62 0 127.034 0C125.449 0 124.133 1.31555 124.133 2.86748C124.133 4.45278 125.449 5.76833 127.034 5.76833C128.62 5.76833 129.935 4.45278 129.935 2.86748V2.86748ZM122.955 15.3996C122.955 10.6431 119.548 6.79735 115.264 6.79735C112.97 6.79735 111.182 7.74186 110.035 9.46222V0.825809H105.278V23.6981H110.035V21.3705C111.182 23.0911 112.97 24.0356 115.264 24.0356C119.548 24.0356 122.955 20.1559 122.955 15.3996V15.3996ZM118.3 15.3996C118.3 17.6934 116.478 19.4813 114.184 19.4813C111.857 19.4813 110.035 17.727 110.035 15.3996C110.035 13.1056 111.857 11.3177 114.184 11.3177C116.478 11.3177 118.3 13.1395 118.3 15.3996V15.3996ZM97.9241 23.6981H102.681V0.825809H97.9241V9.4962C96.7772 7.77542 94.9892 6.79735 92.6615 6.79735C88.3775 6.79735 84.9699 10.6431 84.9699 15.3996C84.9699 20.1559 88.3775 24.0356 92.6615 24.0356C94.9892 24.0356 96.7772 23.0571 97.9241 21.3368V23.6981ZM97.9241 15.3996C97.9241 17.727 96.1024 19.4813 93.7748 19.4813C91.481 19.4813 89.6255 17.6934 89.6255 15.3996C89.6255 13.1395 91.481 11.3177 93.7748 11.3177C96.1024 11.3177 97.9241 13.1056 97.9241 15.3996V15.3996ZM78.4717 23.6981H83.2281V14.32C83.2281 9.63086 80.6646 6.79735 76.4138 6.79735C74.5248 6.79735 72.9731 7.70829 71.9275 9.29379V7.13463H67.1708V23.6981H71.9275V14.9274C71.9275 12.7683 73.2092 11.3512 75.1994 11.3512C77.1559 11.3512 78.4717 12.7683 78.4717 14.9274V23.6981ZM65.3457 16.5465C65.4132 16.0068 65.4468 15.231 65.4468 14.8599C65.4468 10.3054 61.7699 6.79735 57.2831 6.79735C52.4591 6.79735 48.6807 10.5078 48.6807 15.3321C48.6807 20.2236 52.4928 24.0356 57.3842 24.0356C61.5335 24.0356 64.6709 21.7078 65.2108 18.132H60.5554C60.2855 19.2789 59.1046 20.0887 57.2495 20.0887C55.0228 20.0887 53.3698 18.7055 53.0325 16.5465H65.3457ZM60.4877 13.5102H53.2687C53.842 11.5538 55.2592 10.6431 57.0807 10.6431C58.835 10.6431 60.353 11.8238 60.4877 13.5102V13.5102ZM37.6093 11.8911C37.6093 11.1153 38.4191 10.7442 39.4987 10.7442C41.0167 10.7442 41.9274 11.4863 41.9949 12.3297H46.7852C46.3804 8.65279 43.1758 6.79735 39.6 6.79735C35.5179 6.79735 33.0214 9.15851 33.0214 12.2284C33.0214 18.4019 42.3324 15.9733 42.3324 18.7055C42.3324 19.4813 41.5226 19.9537 40.1059 19.9537C38.5202 19.9537 37.3393 19.2114 37.2382 18.098H32.6842C33.0214 21.8427 36.0238 24.0356 40.3419 24.0356C44.0863 24.0356 46.9538 21.7078 46.9538 18.6717C46.9538 11.7565 37.6093 14.4551 37.6093 11.8911V11.8911ZM27.5 13.75C27.5 6.15596 21.3438 0 13.75 0H13.7456H0V6.875C0 10.6247 3.00336 13.6675 6.73528 13.7427H0C0 21.3368 6.15616 27.4927 13.75 27.4927V27.5C21.3438 27.5 27.5 21.3438 27.5 13.75V13.75ZM124.673 23.6981H129.429V7.13463H124.673V23.6981Z" fill="#6210CC"/>
</svg>
