<svg xmlns="http://www.w3.org/2000/svg" width="184" height="60" fill="none" viewBox="0 0 184 60">
    <path fill="#212121" fill-rule="evenodd" d="M55.647 28.028c0 1.543 1.22 2.798 2.718 2.798 1.499 0 2.719-1.256 2.719-2.798 0-1.543-1.22-2.799-2.719-2.799-1.498 0-2.718 1.256-2.718 2.799zm-3.259 9.45c1.045 0 4.6-.149 6.456-2.056.275-.283.276-.742.001-1.026-.275-.283-.721-.284-.997 0-1.172 1.204-3.673 1.631-5.46 1.631s-4.288-.427-5.458-1.63c-.275-.285-.721-.284-.996 0-.275.282-.275.742 0 1.025 1.853 1.907 5.408 2.056 6.454 2.056zm-5.983-12.249c-1.5 0-2.72 1.256-2.72 2.799s1.22 2.797 2.72 2.797c1.498 0 2.717-1.255 2.717-2.797 0-1.543-1.219-2.799-2.717-2.799zm19.568-3.917c2.101 0 3.806 1.754 3.806 3.917 0 1.599-.931 2.97-2.265 3.58.058.387.09.779.09 1.178 0 6.027-6.815 10.913-15.223 10.913-8.408 0-15.223-4.886-15.223-10.913 0-.401.031-.796.09-1.186-1.324-.613-2.248-1.98-2.248-3.572 0-2.163 1.704-3.917 3.806-3.917 1.022 0 1.948.417 2.632 1.092 2.641-1.96 6.295-3.21 10.36-3.32l-.003-.044c-.002-.037-.004-.073.003-.111l1.903-9.212c.038-.183.143-.34.295-.442.15-.101.334-.137.51-.098l6.325 1.384C61.276 9.639 62.191 9 63.258 9c1.502 0 2.72 1.252 2.72 2.798 0 1.545-1.218 2.798-2.72 2.798-1.456 0-2.636-1.183-2.704-2.665l-5.664-1.24-1.735 8.396c3.992.144 7.577 1.391 10.178 3.324.684-.679 1.614-1.099 2.64-1.099zm43.756 14.675c-2.247 0-4.068-2.25-4.068-5.026 0-2.775 1.821-5.026 4.068-5.026 2.248 0 4.069 2.251 4.069 5.027 0 2.775-1.821 5.025-4.069 5.025zm6.673-18.26c0-.833-.655-1.508-1.465-1.508-.808 0-1.465.675-1.465 1.508v6.733c-.991-1.022-2.257-1.54-3.743-1.54-3.865 0-6.997 3.6-6.997 8.041 0 4.442 3.132 8.041 6.997 8.041 1.5 0 2.757-.531 3.77-1.559.13.698.724 1.224 1.438 1.224.81 0 1.465-.675 1.465-1.508V17.727zm20.343 5.528c1.438 0 2.604-1.2 2.604-2.68 0-1.48-1.166-2.681-2.604-2.681-1.438 0-2.604 1.2-2.604 2.68 0 1.48 1.166 2.681 2.604 2.681zm-38.152 6.03c-.558-1.95-2.066-3.35-3.836-3.35-1.771 0-3.278 1.4-3.837 3.35h7.673zm3.072.745c.055.96-.683 1.936-1.95 1.936h-8.946c.377 2.294 2.02 4.021 3.988 4.021 1.582 0 2.596-.885 3.151-1.371l.067-.058c.566-.492 1.335-.638 1.943-.204.748.536.861 1.625.247 2.318-1.258 1.423-2.988 2.33-5.408 2.33-3.866 0-6.998-3.6-6.998-8.041 0-4.441 3.132-8.04 6.998-8.04 3.26 0 6 2.56 6.777 6.029.057.258.101.573.131 1.08zM87.921 24.48c0-.749-.53-1.367-1.224-1.486-2.132-.331-4.126.488-5.285 1.972v-.202c0-.922-.733-1.508-1.466-1.508-.808 0-1.464.675-1.464 1.508V37.1c0 .808.591 1.515 1.374 1.564.85.053 1.556-.64 1.556-1.505v-6.365c0-2.816 2.058-5.129 4.88-4.814.102.012.198.01.29 0 .75-.066 1.34-.713 1.34-1.501zm48.824.117c.809 0 1.465.674 1.465 1.507v11.056c0 .834-.656 1.508-1.465 1.508-.808 0-1.464-.674-1.464-1.508V26.103c0-.833.656-1.507 1.464-1.507zm-15.786 6.366c0 2.775 1.821 5.025 4.069 5.025 2.247 0 4.068-2.25 4.068-5.026 0-2.775-1.821-5.026-4.068-5.026-2.248 0-4.069 2.251-4.069 5.027zm9.277-14.743c.809 0 1.464.675 1.464 1.508v19.432c0 .833-.655 1.508-1.464 1.508-.715 0-1.309-.526-1.438-1.224-1.014 1.028-2.271 1.56-3.77 1.56-3.865 0-6.998-3.6-6.998-8.041 0-4.442 3.133-8.042 6.998-8.042 1.486 0 2.751.518 3.743 1.54v-6.733c0-.833.656-1.508 1.465-1.508zm15.416 20.94V25.935h1.302c.694 0 1.299-.538 1.343-1.25.05-.78-.551-1.43-1.299-1.43h-1.346v-2.126c0-.803-.589-1.505-1.367-1.556-.853-.057-1.562.638-1.562 1.504v2.178h-1.213c-.693 0-1.299.539-1.344 1.25-.049.782.552 1.43 1.299 1.43h1.258V37.16c0 .833.656 1.508 1.464 1.508.809 0 1.465-.675 1.465-1.508z" clip-rule="evenodd"/>
</svg>
