<svg xmlns="http://www.w3.org/2000/svg" viewBox="0 0 168 54"><g fill="currentColor" fill-rule="evenodd"><g><path fill="currentColor" fill-rule="nonzero" d="M801.28 92c1.008.084 2.017.169 3.025.422.841.254 1.514.591 2.018.93.757.506 1.597.928 2.438 1.35 1.093.76 1.765 1.436 2.438 2.112 1.26 1.351 2.185 2.956 2.69 4.73.252.844.42 1.773.672 2.449.168.76.252 1.436.252 2.027 0 .591-.084 1.182-.168 1.774-.084.59-.252 1.097-.42 1.604-.504 1.858-1.597 3.21-2.522 4.73-.84 1.098-1.513 1.689-2.186 2.28-.42.338-1.008.76-1.513 1.014-.504.253-.924.422-.672.253v-.253c-.168.084-.337.084-.505.169h-.084c.84-.507 1.682-1.183 2.438-1.858-.84.675-1.765 1.266-2.774 1.773l-.504.254c-.084 0-.084.084-.169.084l-1.26.507h-.085l-1.092.253c-1.514.422-3.11.507-4.708.253-9.751-1.35-14.963-12.837-9.163-20.945 1.597-2.111 3.615-3.8 5.969-4.983 1.092-.253 1.933-.507 2.942-.676 1.009-.169 1.933-.253 2.942-.253zm5.043 4.054c-2.27-1.098-4.708-1.351-7.23-1.098-2.185.507-4.119 1.605-5.8 2.956-.589.507-1.093 1.098-1.345 2.027.168-.253.252-.338.252-.338 3.195-4.56 9.836-5.405 14.627-2.365 1.934 1.098 3.027 2.534 3.867 4.392.589 1.605 1.177 3.21.925 5.068-.252 1.098-.168 2.533-.84 4.222-.505.76-.925 1.52-1.514 2.365-2.017 2.28-4.54 3.885-7.482 4.392 5.297-.591 9.92-4.645 10.593-9.966h.084v-3.21c-.589-3.547-2.774-6.587-6.137-8.445zm-3.363-3.04c-6.64-1.098-12.693 3.293-14.627 9.29-.336 1.351-.588 2.702-.588 4.054.504 3.8 2.101 6.925 5.548 9.037-.589-.423-1.177-.93-1.681-1.436-4.12-3.8-4.708-10.05-1.345-14.949.756-.76 1.177-1.858 2.017-2.365 1.681-1.52 4.12-2.618 6.305-3.21 7.566-1.013 15.3 4.224 15.468 12.078v-1.858c-.252-1.098-.505-2.45-1.093-3.547-.84-1.351-1.681-2.703-2.774-3.8-1.093-1.099-2.438-1.943-3.867-2.45-1.177-.253-2.27-.591-3.363-.845zm39.51 4.222l-.083 12.331h4.791l-2.185 3.716h-6.221V97.236h3.699zm13.367-.169L865 113.283h-4.287l-4.876-8.614-4.96 8.614h-4.287l9.247-16.216zm-26.48.17c4.54 0 8.238 3.547 8.154 8.023 0 4.392-3.699 8.023-8.238 8.023-4.456 0-8.155-3.547-8.155-8.023 0-4.392 3.7-8.024 8.239-8.024zm-24.883 3.209c-3.952-2.618-9.332-.085-9.92 4.392-.252 1.689.42 3.462 1.513 4.73-.28-.226-.523-.451-.728-.702l-.115-.15.002.007h-.084c-.084-.085 0 .084.168.337.169.254.337.423.505.676.252.338.588.591 1.093 1.014.756.337 1.429.844 2.27 1.098.252.084.504.084.756.168.252.085.504.085.84.085h.194c.247-.003.462-.017.731-.085.42-.084.841-.168 1.177-.253.84-.253 1.598-.676 2.27-1.267.336-.338.84-.675 1.177-1.182.252-.591.252-.845.42-1.098.168-.254.337-.507.42-.93.085-.421.169-.844.169-1.35 0-.507-.084-.93-.168-1.352l-.052-.286c-.07-.362-.15-.66-.285-1.065-.504-1.183-1.26-2.027-2.353-2.787zm-4.036-.676c.589 0 1.261.169 1.934.253 2.858.845 4.96 3.632 4.54 6.673l-.106.506c-.081.338-.175.676-.23 1.014-.337.591-.673 1.267-1.178 1.773-.504.507-1.177.93-1.765 1.352-.505.253-1.177.338-1.681.507-.337.084-.673-.085-1.01-.085 3.784-.084 6.39-3.632 5.801-7.094-.336-1.014-.84-1.943-1.513-2.787-.252-.423-.756-.592-1.177-1.014-2.354-1.52-5.464-1.182-7.23.76-.252.254-.42.591-.672.845.925-1.436 2.438-2.45 4.287-2.703zm-5.38 6.503c.252 1.436 1.093 2.45 2.186 3.379.42.253 1.009.59 1.43.76.672.253 1.008.59 1.68.675h-.42l-.235-.028c-2.492-.353-4.396-2.41-4.64-4.786zm7.986-4.73c.589.339.673.423.337.17.504.084.756.337 1.008.59.673.76 1.261 1.606 1.514 2.619.168 1.098.084 2.28-.42 3.294-.841 1.52-2.27 2.618-3.952 2.871h-.588c.504-.084.84-.337 1.681-.675.925-.338 1.934-1.858 2.354-2.703 1.513-2.45-.252-4.73-1.934-6.165zm26.313-.59c-2.438 0-4.372 1.942-4.372 4.307s1.934 4.307 4.372 4.307l.213-.005c2.337-.11 4.158-2.007 4.158-4.302 0-2.365-1.933-4.308-4.371-4.308z" transform="translate(-751 -780) translate(0 700)"/></g></g></svg>