<svg xmlns="http://www.w3.org/2000/svg" viewBox="0 0 168 54"><g fill="currentColor" fill-rule="evenodd"><g><path fill="currentColor" fill-rule="nonzero" d="M669.264 121.219c-1.324 3.427-2.5 5.933-3.678 7.659-1.71 2.512-3.212 3.122-4.763 3.122-.4-.001-.796-.08-1.165-.232l.46-2.207h1.03c.514 0 .735-.208 1.078-.659-.61-2.512-.889-5.093-.827-7.677h3.022c-.07 1.235-.07 2.473 0 3.707 0 .224.017.442.037.659l.03.323c.13-.31.277-.61.411-.957.503-1.22.941-2.466 1.312-3.732l3.053-.006zm32.241-.268c2.33 0 3.495 1.03 3.495 2.994.024 2.256-1.11 5.213-4.997 5.213-2.342 0-3.488-1-3.488-2.988 0-2.213 1.103-5.22 4.99-5.22zm-50.522-.019c2.415 0 3.139 1.086 3.139 2.232-.025 1.518-1.306 2.738-4.96 2.89-.016.091-.027.183-.03.275 0 .47.324.61 1.177.61.845-.018 1.683-.156 2.489-.409v2.153c-.993.307-2.026.462-3.066.457-2.384 0-3.537-.646-3.537-2.799 0-2.152.987-5.409 4.788-5.409zm36.348 0c2.416 0 3.14 1.086 3.14 2.232-.056 1.518-1.337 2.738-4.991 2.89-.007.092-.007.184 0 .275 0 .47.325.61 1.177.61.845-.018 1.683-.156 2.489-.409v2.153c-.992.307-2.026.46-3.065.457-2.385 0-3.538-.646-3.538-2.799 0-2.152.993-5.409 4.788-5.409zm-61.882.019c2.416 0 3.139 1.085 3.139 2.231 0 1.5-1.281 2.72-4.935 2.873-.017.09-.027.182-.03.274 0 .47.324.61 1.176.61.845-.018 1.683-.156 2.49-.409v2.153c-.993.307-2.027.461-3.066.457-2.391 0-3.537-.646-3.537-2.799 0-2.152.962-5.39 4.763-5.39zm9.024-3.629l-2.52 11.69h-2.893l2.262-10.537 3.151-1.153zm26.22 3.69l-.82 2.914c-.238-.053-.48-.082-.724-.085-.662 0-1.226.659-1.428 1.872l-.614 3.183h-3.004l1.502-7.677h2.257l.06 1.024c.694-.847 1.227-1.292 2.08-1.292.232-.01.465.01.692.06zm36.325 0l-.828 2.914c-.237-.054-.48-.082-.723-.085-.663 0-1.19.659-1.429 1.872l-.613 3.183h-3.004l1.502-7.677h2.256l.074 1.024c.692-.847 1.226-1.292 2.072-1.292.232-.01.465.01.693.06zm-20.029-2.342l-.723 3.659h2.679l.723-3.66h3.163l-2.017 10.227h-3.17l.755-3.872h-2.685l-.73 3.872h-3.163l1.998-10.226h3.17zm-38.843 2.549l-1.502 7.677h-3.004l1.06-5.39.472-2.287h2.974zm3.672 0c-.068 1.249-.068 2.5 0 3.75 0 .216.019.415.04.621l.033.318c.13-.31.276-.61.411-.939.515-1.262.981-2.64 1.337-3.75h3.077c-1.034 2.635-2.24 5.2-3.61 7.677h-3.68c-.478-2.53-.683-5.104-.612-7.677h3.004zm-25.988-2.55c1.104-.059 2.205.175 3.188.678l-1.998 1.915 2.912-1.055c.395.63.587 1.367.551 2.11 0 3.353-1.851 6.58-6.492 6.58H610l1.999-10.227zm85.295 4.641c-1.226 0-1.533 1.83-1.533 2.653 0 .659.276.848.828.848 1.19 0 1.496-1.83 1.496-2.665 0-.64-.264-.836-.79-.836zm-85.607-2.244h-.859l-1.06 5.397h.613c1.87 0 3.004-1.61 3.01-3.653 0-1.006-.478-1.744-1.704-1.744zm9.71 1.91v.03c-.692 0-1.09.573-1.226 1.22 1.367 0 1.784-.428 1.784-.781-.006-.138-.07-.268-.175-.357-.106-.09-.245-.13-.383-.113zm25.51 0v.03c-.693 0-1.091.573-1.226 1.22 1.373 0 1.784-.428 1.784-.781-.002-.14-.065-.272-.172-.362-.107-.09-.248-.13-.386-.108zm36.317 0v.03c-.692 0-1.085.573-1.226 1.22 1.374 0 1.784-.428 1.784-.781-.004-.14-.067-.27-.173-.36-.107-.089-.246-.13-.385-.11zM638.28 117.7c.31.283.484.684.479 1.103.03.479-.147.948-.49 1.287-.34.339-.813.514-1.294.481-.42.039-.836-.102-1.145-.387-.308-.285-.48-.688-.474-1.107-.025-.475.154-.938.494-1.273.34-.336.806-.511 1.284-.483.419-.041.836.096 1.146.38zm16.67-31.71c3.383-3.734 8.738-4.992 13.444-3.159 5.076 1.995 8.187 7.128 7.588 12.53-.6 5.402-4.76 9.736-10.157 10.582l-17.166 3.805c-.091.007-.18-.032-.237-.105-.056-.073-.07-.17-.038-.255l1.594-2.805.02-.06c.018-.081-.006-.168-.068-.229-.076-.076-.193-.095-.29-.047l-11.911 3.745c-.09.027-.188-.006-.241-.083-.053-.077-.05-.18.008-.253l8.343-8.952c.141-.158.105-.408-.165-.408l-3.415-.207c-.1-.015-.18-.088-.206-.185-.025-.097.01-.2.09-.26zm11.212 2.073c-.074-.03-.157-.017-.22.03l-3.219 2.891-4.2-1.024-.053-.012c-.073-.007-.146.02-.196.075-.063.07-.078.17-.039.254l1.73 3.915-13.598 10.135c-.03.018-.046.05-.043.085-.002.028.008.055.028.075.02.02.048.03.076.029h.043l15.762-6.708 2.795 3.287c.052.055.128.082.204.07.075-.013.139-.062.17-.131l.938-4.269.117-.049 3.837-1.555.059-.016c.073-.03.127-.097.14-.178.015-.101-.038-.2-.131-.245l-3.74-2.177-.319-4.31c-.013-.079-.067-.144-.14-.172z" transform="translate(-575 -780) translate(0 700)"/></g></g></svg>