<svg xmlns="http://www.w3.org/2000/svg" width="169" height="54" viewBox="0 0 169 54">
    <g fill="none" fill-rule="evenodd">
        <g fill="#212121" fill-rule="nonzero">
            <g>
                <g>
                    <path d="M128.027 19.626c4.705.027 8.511 3.88 8.511 8.626 0 2.466-1.028 4.691-2.676 6.264-.611.584-1.555.65-2.22.13-.975-.764-2.226-1.219-3.665-1.219-1.438 0-2.69.455-3.665 1.218-.659.518-1.599.461-2.207-.117-1.672-1.588-2.71-3.847-2.69-6.35.04-4.726 3.92-8.58 8.612-8.552zm-97.397 0c4.047 0 6.916 3.439 6.916 7.547 0 .396-.03.791-.09 1.126H27.307c.211 2.069 1.873 3.5 3.957 3.5 1.661 0 2.99-.944 3.685-1.705l2.235 2.252c-1.42 1.704-3.746 2.647-6.01 2.647-4.38 0-7.672-3.043-7.672-7.668 0-4.108 2.778-7.7 7.128-7.7v.001zm64.312 0c4.048 0 6.917 3.439 6.917 7.547 0 .396-.03.791-.091 1.126H91.62c.211 2.069 1.873 3.5 3.957 3.5 1.66 0 2.99-.944 3.684-1.705l2.236 2.252c-1.42 1.704-3.746 2.647-6.012 2.647-4.379 0-7.67-3.043-7.67-7.668 0-4.108 2.778-7.7 7.127-7.7v.001zm-14.321 0c2.537 0 4.803 1.187 6.162 2.952l-2.78 2.465c-.784-1.035-1.962-1.766-3.382-1.766-2.265 0-3.957 1.796-3.957 4.048 0 2.312 1.662 4.016 4.047 4.016 1.601 0 2.87-.973 3.504-1.947l3.02 2.282c-1.721 2.313-3.896 3.317-6.644 3.317-4.531 0-7.854-3.407-7.854-7.668 0-4.29 3.414-7.699 7.884-7.699zm-63.308 0c1.903 0 3.986.73 4.953 1.491l-1.843 2.86c-.755-.547-1.752-1.004-2.808-1.004-1.088 0-1.994.426-1.994 1.187 0 1.917 7.098 1.157 7.098 6.27 0 2.829-2.748 4.564-5.83 4.564-2.023 0-4.168-.7-5.889-1.979l1.903-2.83c.996.913 2.537 1.461 4.016 1.461 1.058 0 1.873-.517 1.873-1.248 0-2.22-7.097-1.43-7.097-6.177 0-2.83 2.718-4.595 5.618-4.595zM71 19.93v14.759h-3.926V19.93H71zm-17.372 0l4.017 9.008 4.017-9.008h4.078l-6.735 14.76h-2.718L49.55 19.93h4.078zm-6.494-.152c.393 0 .778.035 1.153.102v3.787c-.443-.194-.984-.238-1.575-.238-1.662 0-3.02 1.066-3.564 1.827v9.433h-3.927V19.93h3.775v1.34c1.118-.913 2.507-1.492 4.138-1.492zm64.197-.152c2.024 0 3.867.913 5.075 2.373.966 1.157 1.51 2.648 1.51 5.173v7.517h-3.926v-7.82c0-1.46-.332-2.222-.876-2.77-.514-.517-1.299-.822-2.205-.822-1.661 0-3.02 1.066-3.564 1.827v9.585h-3.926V19.93h3.775v1.187c1.118-.913 2.507-1.491 4.137-1.491zm28.142.304l3.197 8.434 3.134-8.434h3.276l3.108 8.434 3.225-8.434h3.92l-5.83 14.759h-2.925l-3.135-8.404-3.135 8.404h-2.925l-5.831-14.759h3.921zm19.87 11.055c1.01 0 1.83.822 1.83 1.837 0 1.015-.82 1.837-1.83 1.837-1.012 0-1.831-.822-1.831-1.837 0-1.015.82-1.837 1.83-1.837h.001zm0 .25c-.873 0-1.581.712-1.581 1.587 0 .874.708 1.586 1.58 1.586.871 0 1.58-.712 1.58-1.586 0-.875-.709-1.587-1.58-1.587h.001zm.107.701c.305 0 .548.244.548.55 0 .221-.138.417-.339.497l.388.666h-.308l-.36-.624h-.331v.624h-.28v-1.713h.682zm0 .264h-.402v.573h.402c.148 0 .268-.127.268-.286 0-.162-.12-.287-.268-.287zm-31.474-8.261c-2.541 0-4.28 1.953-4.28 4.33 0 2.375 1.739 4.296 4.28 4.296 2.543 0 4.28-1.92 4.28-4.296 0-2.377-1.737-4.33-4.28-4.33zM30.63 22.82c-1.631 0-2.96 1.248-3.141 2.587h6.04c-.12-1.308-1.299-2.587-2.9-2.587h.001zm64.312 0c-1.63 0-2.96 1.248-3.14 2.587h6.04c-.121-1.308-1.3-2.587-2.9-2.587zM69.038 13c1.42 0 2.567 1.096 2.567 2.525 0 1.431-1.148 2.527-2.567 2.527-1.42 0-2.567-1.096-2.567-2.527 0-1.43 1.147-2.525 2.567-2.525z" transform="translate(-399 -962) translate(0 882) translate(399 80)"/>
                </g>
            </g>
        </g>
    </g>
</svg>
