<svg xmlns="http://www.w3.org/2000/svg" viewBox="0 0 168 54"><g fill="currentColor" fill-rule="evenodd"><g><path fill="currentColor" fill-rule="nonzero" d="M1375.706 98.45c1.692 0 3.09.663 4.12 1.768l.22-1.547h2.576v13.995c0 2.725-1.766 6.334-6.843 6.334-4.562 0-6.254-3.61-6.401-4.493l2.722-.81c.074.663 1.03 2.43 3.459 2.43 2.28 0 3.9-1.252 3.9-3.388v-1.841c-1.03.884-2.282 1.4-3.753 1.4-3.826 0-6.402-2.726-6.402-6.924s2.65-6.924 6.402-6.924zm15.598.074c3.974 0 6.696 2.725 6.696 6.924-.074.515-.22 1.104-.22 1.104h-10.007c.441 1.694 1.839 2.8 3.605 2.8 1.471 0 2.428-.369 3.605-1.695l2.06 2.136c-1.692 1.915-3.458 2.578-5.812 2.578-3.753 0-6.475-2.725-6.475-6.923 0-4.199 2.722-6.924 6.548-6.924zm-29.358 0c3.312 0 5.151 2.799 5.151 6.04v7.586h-3.09v-7.292c0-1.841-.663-3.314-2.796-3.314-2.134 0-2.723 1.473-2.723 3.314v7.292h-3.016V98.82h2.796l.147 1.4c1.03-1.106 2.354-1.695 3.531-1.695zM1335.09 93v8.618c.957-.81 2.355-1.253 4.12-1.253h3.091V93h3.017v7.44l.476-.001c1.695-.002 3.236-.074 4.16-2.136l2.5 1.031v12.522h-3.163v-9.207c-1.177.736-2.502 1.03-4.047 1.03v8.103h-3.017v-8.176h-3.679c-2.354 0-3.531.81-3.531 3.462v4.714H1332V93h3.09zm40.91 8.544c-2.134 0-3.605 1.547-3.605 3.904s1.471 3.903 3.605 3.903 3.605-1.546 3.605-3.903-1.471-3.904-3.605-3.904zm15.304-.074c-1.692 0-2.943.958-3.458 2.505h6.917c-.442-1.547-1.766-2.505-3.459-2.505zM1351.057 93c1.03 0 1.84.884 1.84 1.915 0 1.031-.81 1.915-1.84 1.915s-1.84-.884-1.84-1.915c0-1.031.81-1.915 1.84-1.915z" transform="translate(-1279 -780) translate(0 700)"/></g></g></svg>