<svg xmlns="http://www.w3.org/2000/svg" viewBox="0 0 140 30"><g fill="none" fill-rule="evenodd"><path fill="#FFF" d="M0 0H1670V7072H0z" transform="translate(-871 -4430)"/><g><path fill="#FAFAFA" d="M0 0H1670V480H0z" transform="translate(-871 -4430) translate(0 4334) matrix(1 0 0 -1 0 480)"/><g opacity=".99"><g><path d="M0 0H140V30H0z" transform="translate(-871 -4430) translate(0 4334) translate(847 54) translate(24 42)"/><path fill="#212121" fill-rule="nonzero" d="M43.75 8.164c1.695 0 3.094.628 4.125 1.674l.221-1.465h2.578V21.63c0 2.581-1.767 6-6.85 6-4.566 0-6.26-3.419-6.408-4.256l2.726-.767c.073.628 1.03 2.302 3.461 2.302 2.284 0 3.904-1.186 3.904-3.21v-1.744c-1.031.837-2.283 1.326-3.756 1.326-3.83 0-6.408-2.582-6.408-6.56 0-3.977 2.651-6.558 6.408-6.558zm15.615.07c3.978 0 6.703 2.581 6.703 6.558-.074.489-.221 1.047-.221 1.047H55.83c.442 1.605 1.841 2.652 3.61 2.652 1.472 0 2.43-.35 3.608-1.605l2.062 2.023c-1.694 1.815-3.461 2.443-5.818 2.443-3.757 0-6.482-2.582-6.482-6.56 0-3.977 2.725-6.559 6.555-6.559zm-29.388 0c3.315 0 5.156 2.65 5.156 5.721v7.187H32.04v-6.908c0-1.744-.663-3.14-2.8-3.14-2.135 0-2.724 1.396-2.724 3.14v6.908h-3.02V8.512h2.799l.147 1.326c1.031-1.046 2.357-1.605 3.535-1.605zM3.093 3v8.164c.958-.768 2.357-1.186 4.125-1.186h3.094V3h3.02v7.048h.483c1.694-.003 3.233-.073 4.157-2.024l2.504.977v11.862h-3.167v-8.722c-1.179.698-2.504.977-4.051.977v7.675h-3.02v-7.745H6.555c-2.357 0-3.535.768-3.535 3.28v4.465H0V3h3.093zm40.952 8.094c-2.136 0-3.609 1.466-3.609 3.698 0 2.233 1.473 3.699 3.61 3.699 2.135 0 3.608-1.466 3.608-3.699 0-2.232-1.473-3.698-3.609-3.698zm15.32-.07c-1.694 0-2.946.908-3.461 2.373h6.923c-.442-1.465-1.768-2.373-3.462-2.373zM19.076 3c1.032 0 1.842.837 1.842 1.814 0 .977-.81 1.814-1.842 1.814-1.03 0-1.84-.837-1.84-1.814 0-.977.81-1.814 1.84-1.814z" transform="translate(-871 -4430) translate(0 4334) translate(847 54) translate(24 42)"/></g></g></g></g></svg>