<svg xmlns="http://www.w3.org/2000/svg" width="59" height="51" viewBox="0 0 59 51">
    <g fill="none" fill-rule="evenodd">
        <g>
            <path fill="#FFF" d="M0 0H1670V6963H0z" transform="translate(-559 -4454)"/>
            <g>
                <path fill="#FAFAFA" d="M0 0H1670V480H0z" transform="translate(-559 -4454) translate(0 4334) matrix(1 0 0 -1 0 480)"/>
                <g>
                    <path fill="#212121" d="M12.677 28.199c.043 0 .043 0 0 0l.043-.044c.043 0 .043-.043.043-.086v-.217c0-.044.044-.087.044-.13V27.46s-.044 0-.044-.043v-.087c-.043-.13.044-.26.087-.39v-.13h.044c.043 0 .043-.044.086-.044 0-.043.044-.087.044-.087v-.086c0-.044-.044-.044-.044-.044h-.043v-.043c0-.044.043-.044.043-.087.044 0 .044-.043.044-.087 0 0-.044 0-.044-.043v-.13c.044 0 .044-.044.044-.087v-.087s-.044 0-.044-.043 0-.043.044-.087v-.173c0-.044 0-.087.043-.131v-.086l.044-.044V25.205c.043 0 .043-.043.043-.043v-.087c.043-.043.043-.043.043-.087v-.26s0-.044.044-.087v-.216l.043-.044v-.173s0-.044.044-.087c0-.087.043-.13.043-.217 0-.043.043-.043.043-.087 0 0 0-.087.044-.087 0-.043-.044 0-.044-.043s.044-.043.044-.043c0-.044 0-.087.043-.13v-.087s.043 0 .043-.044v-.043c0-.043 0-.087.044-.13v-.13c0-.044 0-.087.043-.087v-.087h.044V22.646s.043-.044 0-.044v-.043.043s.043-.043.043-.087c0-.043 0-.043.043-.086.044 0 0-.043.044-.087V21.995c0-.043.043-.043.043-.087 0-.043 0-.043.044-.043h.042v-.087c0-.043.044-.043.044-.043v-.26c.044-.044.044-.044.044-.087.303-.044.303-.087.303-.13v-.087c.043-.044.087-.044.13-.087v-.043s0-.044.043-.044v-.173c0-.044.044-.044.044-.087v-.13c0-.044 0-.087.043-.087 0-.043 0-.087.044-.087 0-.043.043-.043.043-.087 0-.043.043-.043.043-.086h.044l.043-.044c.044 0 .044-.043.044-.043v-.13l.043-.043c0-.044.043-.044.043-.088l.044-.043v-.217c0-.043.043-.043.043-.086 0-.044 0-.044-.043-.044v-.607s0-.043.043-.043v-.087l.044-.044v-.043c.043 0 .043-.087.043-.087 0-.043-.043-.043 0-.086l.043-.044c.044-.043 0-.043 0-.087v-.086c0-.087.044-.131.087-.217.044-.087.087-.13.087-.217.043-.087.087-.13.087-.217v-.087c0-.044.043-.087.043-.13.044-.043.044-.13.044-.174v-.216c.13-.087.13-.087.13-.13v-.044c.043 0 .043-.043.043-.043.044-.044.044-.044.044-.087 0-.044 0-.13.043-.174 0 0 .043 0 .043-.043v-.043s0-.044.044-.087c-.044-.044-.087-.044-.087-.087v-.13s.043 0 .043-.044l.044-.043c0-.043.043-.087.043-.087.043-.043 0-.086 0-.13v-.043c0-.044.043-.044.043-.044 0-.043.044-.043.044-.043 0-.043 0-.043.043-.087v-.043l-.043-.044v-.086l.087-.087c0-.044.043-.087 0-.087v-.087c0-.043.043-.043.043-.043 0-.044 0-.044.043-.044.044 0 0 0-.043-.043v-.173c.043-.044.043-.087.043-.13v-.174c0-.043 0-.087.044-.13 0-.043 0-.043.043-.087.044-.043.044-.043.044-.087v-.043s.042 0 .042-.043v-.087c0-.043.044-.043.044-.043v-.131s0-.043.044-.043h.043v-.087l.043-.043v-.304l.043-.043v-.087s.044 0 .044-.043v-.087s0-.044.044-.087v-.043c0-.044 0-.044.043-.087v-.044h.043l.043-.043v-.174s0-.043 0 0c.044 0 .044 0 .044-.043v-.174c0-.043.044-.043.044-.043.042 0 0-.043.042-.086v-.044s.044-.044.044-.087c.043 0 .043 0 .043-.043-.043 0 0 0 0-.043v-.044c0-.043 0-.043.044-.086l.043-.087v-.044c0-.043 0-.043.043-.086 0-.044.044-.087.044-.087 0-.087.13-.13.13-.217.043-.043.043-.087.043-.13l.044-.044c0-.043-.044-.043 0-.043.043 0 .087-.043.087-.087.043-.043.043-.086.043-.13 0 0 0-.043.043-.043v-.044h.044v-.173c0-.044.043-.044.043-.087s-.043-.043-.043-.087v-.087s.043-.043 0-.043c0-.043.043-.087.043-.13 0-.044.044-.087.087-.13 0-.044.043-.087.043-.13l.044-.044v-.086c.043-.044.087-.088.087-.174v-.043s.043 0 .043-.044v-.086c.043 0 0-.044.043-.044v-.087c.044-.043.044-.086.087-.13 0-.043 0 0 .044-.043v-.044c0-.043.043 0 .043 0v-.043c0-.043 0-.087.043-.087v-.043c.044 0 .087-.174.087-.217.044-.13.13-.26.174-.39l.13-.26s0-.044.043-.088l.044-.043c0-.043.043-.087.086-.13v-.044s.044 0 .044-.043v-.087c.043-.043.043-.087.043-.13.043-.043.043-.086.086-.13v-.087c0-.043.044-.043.044-.086v-.044s0-.044.044-.087c0-.043.043-.043.043-.086 0-.044.043-.044.086-.087v-.043c0-.044.044-.087.044-.13.044-.044.044-.087.086-.13l.044-.044c0-.043 0-.043.043-.043 0-.044 0-.174.044-.174 0-.043 0-.043.043-.087l.043-.043c-.043-.044 0-.087.044-.13 0 0 .043 0 .043-.044V6.16c0-.044.044-.044.044-.087.043-.044.043-.087.086-.13.044 0 .044 0 .044-.044 0-.043.043-.087.043-.13.044-.043.13-.13.174-.217 0 0 0-.043.043-.043h.044s0-.044.043-.087c0-.044 0-.044.043-.087l.044-.043c0-.043.043-.043.043-.043s.044-.044.044-.088l.043-.043s.043 0 .043-.043c0 0 0-.043.044-.043v-.088c.043 0 .043-.043.043-.043s0-.043.043-.043h.044v-.043h.043s0-.044.044-.044l.043-.043c.043 0 .087-.043.087-.087h.087c.043 0 0-.043.043-.087 0 0 .043 0 .043-.043l.044-.043v-.131c.043 0 .043.044.043.044v.043s-.043 0 0 0v.044c0 .043.044-.044.087-.044l.043-.043.044-.044v-.13s.043 0 .043-.043v-.043s-.043.043 0 .043h.044v-.043h.042v-.044h.131c0 .044 0 0 .043 0s0 0 .043-.043v-.087s.044 0 .044-.043c0 0 0 .043.044 0 0-.044 0-.044.043-.044v.044c.043-.044.043-.044.043-.087 0-.044-.043-.044 0-.087 0-.043.043-.087.043-.087h.087c0-.043-.043-.043 0-.087v-.043s.043 0 .043-.043v-.087h.044s0-.044.043-.044v-.086l.044-.044.043-.043c0-.044.043-.044.043-.087v.043c.044 0 .044-.043.044-.043v-.043s.043-.044.043-.087c0-.044 0-.087.043-.087V2.82l.044-.044V2.69c0-.043 0-.043.043-.087v-.13l.044-.043v-.044c-.044 0-.044 0-.044-.044l.044-.042v-.261c0-.043 0-.043-.044-.087V1.65c0-.044 0-.044-.043-.087v-.13c0-.044-.044-.044-.044-.087 0 0 0-.043-.043-.043v-.044c0-.043-.043-.043-.043-.087v-.043c-.044 0-.044 0-.044-.043V1.04c-.043-.043-.043-.087-.086-.13h.13L22.09.868l-.13-.13c0-.044-.043-.044-.087-.044V.651s0-.044-.043-.044h-.043s-.044 0-.044-.043H21.7c-.043 0-.043 0-.043-.044V.477h-.043c-.044 0-.044-.043-.044-.043S21.526.39 21.483.39c0 0-.043 0-.043-.043l-.043-.043c-.044 0-.044 0-.088-.043-.042-.044-.086-.044-.086-.044-.043 0-.087-.044-.087-.044-.043 0-.086 0-.086-.043h-.087c-.044-.043-.087-.043-.087-.043h-.13c0-.043-.043-.043-.087-.043h-.13c-.043 0-.087-.044-.13-.044 0 0-.044.044-.044 0h-.043c-.043 0-.043.044-.087.044-.043 0-.043-.044-.043-.044-.044 0-.087.044-.13.044h-.13c-.044 0-.087.043-.087.043-.044 0-.087 0-.13.043-.044 0-.087.043-.13.043-.218.088-.347.217-.521.347l-.13.131s0 .043-.044.043h-.043s-.043.043 0 .087c-.043 0-.087.043-.087.087h-.043l-.087.086s-.043.044-.043.087c-.044.044-.044.087-.087.13-.043.044-.087.087-.087.13-.086.044-.173.13-.217.218-.043.043-.043.086-.043.173-.087 0-.13.174-.174.26l-.13.26c-.087.174-.13.347-.217.521-.043.087-.087.217-.13.304l-.13.26c0 .13-.044.217-.13.347-.044.13-.087.217-.13.304-.087.217-.174.39-.218.564-.042.13-.086.217-.13.304-.043.086-.043.217-.13.303-.087.173-.13.39-.216.607 0 .044-.088.13-.088.217-.042.087-.042.174-.086.26-.087.131-.13.305-.173.435-.087.173-.13.347-.174.52-.087.217-.173.434-.217.651l-.13.26c0 .087-.043.217-.087.304-.043.087-.087.217-.13.347-.043.13-.087.304-.13.434-.087.173-.13.304-.217.477-.044.217-.13.39-.217.607-.217.478-.347.955-.52 1.475 0 .044-.044.087-.044.13-.044.044-.044.087-.044.13 0 .044-.043.088-.086.13-.043.088-.087.088-.087.174-.044.13-.044.217-.044.348 0 .173-.086.26-.13.39-.043.086-.043.13-.086.217-.043.13-.13.26-.174.434 0 .086-.086.173-.086.26.043 0 0 .087 0 .217 0 .087-.087.173-.044.26-.043.044-.086.217-.086.26-.044.087-.044.217-.087.304-.044.087-.13.173-.13.303v.304c0 .087-.044.087-.087.174-.044.043-.044.13-.044.217s0 .087-.043.173c-.043.087-.043.13-.087.217-.043.26-.13.52-.217.781-.043.13-.087.26-.087.434l-.13.39c-.087.26-.13.521-.173.825 0 .087-.044.173-.087.303v.13c0 .044-.087.087-.087.174s0 .13-.043.217l-.13.39c-.043.26-.174.521-.217.825-.043.217-.13.434-.174.65 0 .087 0 .217-.043.304-.043.13-.087.217-.087.347 0 .087-.043.173-.043.217 0 .044 0 .087-.043.13 0 .043-.044.043-.044.087 0 .087 0 .13-.043.173-.044.087 0 .13-.044.174 0 .13-.043.26-.086.39-.044.217-.13.391-.13.608-.044.087-.044.217-.087.304-.044.173-.087.433-.13.607-.044.13-.044.217-.087.303-.044.087-.044.217-.087.304 0 .087-.087.217-.043.304-.044.087-.044.174-.044.304 0 .086 0 .173-.043.26-.044.13-.087.304-.087.434-.043.13-.043.26-.087.39-.043.087-.043.173-.043.26-.044.13-.044.304-.087.478-.043.303-.087.607-.174.91 0 .13-.043.26-.086.391 0 .217-.087.39-.087.608 0 .086-.044.173-.044.216-.043.174-.043.304-.086.478-.044.303-.044.607-.173.867-.044.087-.044.217-.044.304-.044.39-.13.78-.173 1.171-.044.174-.044.347-.044.52-.044.088-.044.218-.044.305v.173l-.043.043v.087c0 .13-.043.217-.043.347h-.043v.087c-.044.043-.044.086-.044.086-.044.044-.044-.043-.044-.086-.042-.087-.042-.087-.13-.043 0-.044-.043-.044-.043-.087v-.087c0-.087.044-.13 0-.217 0-.043-.043-.043-.043-.087 0-.043.043-.043.043-.086 0-.13-.086-.087-.173-.13 0-.044.043-.044.043-.087v-.564c-.043-.087-.043-.13-.043-.174 0-.087-.044-.13-.044-.217 0 0 .044-.043.044-.087v-.13c0-.087.043-.087.043-.173-.043-.217 0-.13 0-.217 0-.043-.043-.173-.043-.173-.044-.044-.044-.044-.087-.044-.043-.043-.043-.043-.043-.087v-.043s.043 0 .043-.043h-.043c-.044 0 0 0 0 0-.044.043-.087 0-.044-.087v-.044c0-.043-.043-.043 0-.043 0 0 .087-.043.087-.087h-.087s-.043.044-.086.044c0 .043-.044.043-.044 0v-.304c0-.043.044-.043.044-.087 0-.043 0-.043-.044-.087-.043-.043 0 0 0-.043 0 0 0-.043.044-.087v-.086c0-.044 0-.087.043-.087v-.044c0-.043 0-.043.043-.043v-.13c0-.044-.043-.087-.043-.13 0-.044 0-.044-.043-.087 0-.044-.044-.044-.044-.044v-.086s-.087-.044-.043-.044c0-.043-.044-.043-.044-.087v-.086s-.043-.043-.043-.087v-.087c0-.043-.043-.13-.043-.174v-.346c0-.044 0-.044-.044-.087-.043-.043 0-.043-.043-.043 0-.044 0-.044-.044-.087l-.043-.087c0-.043 0-.087-.043-.13.043 0 0-.043 0-.087v-.173c0-.044-.044-.044 0-.044h.086s.044-.043.044-.086c0-.044-.087-.087-.087-.131-.043-.043-.043-.086-.043-.13v-.13c0-.043 0-.087-.044-.13v-.13c0-.044-.043-.044-.043-.087 0-.044 0-.044-.044-.087 0-.043-.043-.043-.043-.043-.043-.043-.087-.13-.087-.217v-.043c0-.044-.043 0-.043-.044 0-.087.043-.044 0-.087-.044 0-.044 0-.044-.043v-.043c0-.044 0-.044.044-.087 0-.043.043-.043.043-.087.044.174.044.174 0 .174-.043 0-.043 0-.043-.087v-.174c0-.043-.044-.043-.044-.086 0-.044 0-.087.044-.13v-.087h-.087c0-.13-.043-.217-.043-.347v-.044c0-.043 0-.043-.044-.087-.043-.043-.043-.13-.043-.173v-.13c0-.044-.044-.087-.044-.13 0-.044 0-.044.044-.044l.043-.043h-.043c-.044 0-.044 0-.044-.044v-.086s-.043-.087 0-.087v-.087h-.043v-.13s.043-.044 0-.044v-.129c0-.044 0-.088.043-.088.044 0 .044 0 .044-.043 0 0-.044 0-.044-.043v-.043l-.043-.044v-.044c0-.042-.043-.042-.043-.086 0-.043.043-.043.043-.043.043 0-.043 0-.043-.044 0 0 .043 0 .043-.043s0-.043-.043-.043c-.044 0-.087 0-.087-.044-.044-.043-.044-.087 0-.087.043-.043.043-.043.043-.086v-.044l-.043-.043s-.044-.087 0-.13h.043c0-.044 0-.044-.043-.044-.044 0-.044.044-.087 0l-.043-.043c0-.043.043 0 .043-.043.043 0 .043-.044.043-.044H7.08c-.043 0-.043-.087-.043-.13.043 0 .043.043.043 0v-.043s0-.044-.043-.044c0 0-.044 0-.044-.043-.043-.043-.043-.087-.043-.13v-.044c.043 0 .043-.043.043-.043 0-.043-.043-.087-.043-.13V22.646s-.043-.044 0-.044v-.043c-.043-.044-.043-.13-.043-.173 0-.044 0-.088-.043-.13 0-.044 0-.087-.044-.13v-.478s-.044 0-.044-.043v-.174h-.043v-.043c0-.044-.043-.087-.043-.13 0-.044-.043-.087-.043-.13v-.261s-.044 0-.044-.043v-.174c0-.043 0-.043-.044-.087v-.216c0-.044-.042-.087-.042-.13v-.088c0-.043 0-.043-.044-.043V19.87c-.043-.086-.043-.174-.043-.26v-.13c0-.043-.044-.087-.044-.13-.043-.087-.043-.174-.086-.217 0-.044-.044-.044-.044-.087v-.087c-.043 0-.043-.043-.043-.043-.044-.043-.044-.087-.044-.13 0 0-.043 0-.043-.044 0 0 0-.043-.043-.043 0-.043-.044-.043-.044-.087-.043 0-.043-.043-.043-.043-.043 0-.043-.043-.087-.043-.043 0-.043-.044-.043-.044-.044 0-.044-.043-.044-.043-.043-.044-.086-.044-.173-.087h-.044c-.043-.043-.086-.043-.13-.043h-.607c-.044 0-.087.043-.13.043 0 0-.044 0-.044.043l-.043.044s-.044 0-.044.043c-.043 0-.087 0-.13.044l-.087.086c-.043.044-.13.087-.173.13l-.13.13c-.087.044-.087.13-.173.217l-.13.26c-.044.13-.087.218-.131.347v.088c0 .043-.043.043-.043.086-.043.043-.043.13-.043.174l-.044.043s0 .043-.043.043c0 .044-.044.087-.044.13l-.043.044s.043.043 0 .043H3.35v.044c-.044.13-.087.26-.087.39 0 .044-.044.044-.044.087v.087c-.173-.13-.173-.087-.173 0 0 .043-.044.087-.044.13-.086.217-.086.39-.173.607-.044.087-.044.13-.087.174-.043.087-.043.087-.043.173 0 .087-.044.13-.044.217s-.043.13-.087.174c-.043.086-.043.13-.086.26-.044.087-.044.13-.087.217v.174c0 .086-.044.173-.087.217l-.13.39c-.044.13-.086.217-.13.347-.044.087-.044.13-.087.174-.043.043-.043.086-.086.173.043.044-.044.13-.044.174 0 .086 0 .13-.044.217-.043.173-.086.26-.13.433 0 .13-.13.217-.173.304-.043.087-.043.13-.043.217s0 .13-.044.217c-.043.087-.043.217-.13.26 0 .044-.173.13-.087.13-.043.087-.086.087-.043.174-.043-.044-.043.13-.043.13v.217c-.087.173-.13.304-.217.477s-.174.39-.26.564H.66c0 .043 0 .13-.044.173-.043.044-.043.13-.086.174v.087c0 .043-.044.043-.044.087-.043.043 0 .13-.087.173.044.044 0 .087-.043.13 0 .044 0 .087-.043.174-.044.087-.087.217-.13.304-.044.086-.087.216-.13.303.043.217-.088.477-.044.694 0 .13.043.217.13.347.087.174.26.347.39.434.087.044.174.087.261.087.043 0 .087.043.13.043h.217c.043 0 .087 0 .087-.043h.173c.044 0 .044-.043.044-.043 0-.044.043 0 .043-.044.044 0 .044-.043.044-.043.042-.044.086-.044.13-.044.086-.043.13-.086.217-.13.043-.043.043-.086.086-.13l.043-.043v-.044c.044-.043.088.044.13 0 0-.043 0-.043-.042-.043-.044-.043 0-.087.042-.174 0-.043 0-.043.087-.086.044-.044.044-.044 0-.087v-.087s.044 0 .044-.043c0-.044.043 0 .043-.044v-.087c0-.043.043-.043.043-.043v-.086c0-.044.044-.088.087-.13 0 0 .044-.044 0-.087 0-.044-.043 0 0-.044.044-.044.087-.044.13-.13v-.087c0-.043.044-.043.044-.043v-.087c0-.043.043-.043.043-.087 0-.043.044-.086.044-.13 0-.043.043-.043.086-.086.044 0 .087 0 .087-.044 0-.043-.043 0-.087-.043-.043 0 0-.087 0-.087s.044 0 .044-.043v-.087c0-.044 0 0 .043 0v-.13l.174.043h.043c-.043 0 0-.043 0-.087 0-.043.044-.043.044-.043v-.174c0-.043 0 0 .043-.043v-.043h.043v-.044h-.086v-.043c0-.044 0-.044.043-.044h.043s0 .044.044 0v-.043h-.044s.044 0 .044-.043v-.174l.043-.043v-.044h-.043c-.044 0 0-.043 0-.043v-.087c0-.043.043 0 .043 0v-.043c0-.043.044-.043.044-.087v-.044h.13s.043-.043.043-.086H3.48v-.131h.043v-.086s0-.043.044-.043h.086v-.044H3.61c-.043 0-.043 0 0 0s.043 0 .043-.043v-.043s.044 0 0 0v-.044s.044 0 .087-.043c.043 0 .043-.044.043-.087 0 0-.043 0-.043-.043 0 0-.043-.044 0-.044 0-.043 0 0 .043 0 .044 0 0-.043 0-.043v-.044s.044-.086 0-.086v.043-.043l-.043-.044v-.043c.043-.043.043.043.087.043v-.043h.13v.043c0-.043-.043 0-.043-.043v-.043H3.87s0 .043-.043.043c0 0 0-.043.043-.043v-.131c.044 0 .087.044.13.044v-.13h.044v-.087h.086v-.174c0-.043.043-.043.043-.086v-.087c.044 0 .044-.044.088-.044h.086s.043 0 .043.044h.13l.044.043c0 .044 0 .044.043.087h.087s-.043 0-.043.043v.131c0 .043-.044.043 0 .043 0 0 0 .043.043.043v.044c.043.043.043-.044.043-.044 0-.043.044-.043.087-.043.044 0 .044 0 .087.043 0 .044 0 .044-.043.044h-.044v.13s-.043 0 0 .043c0 0 .087 0 .087.044v.086h-.13l-.044.044v.13s-.043.087 0 .087c0 .043.044.043.087.043.044.043 0 .043 0 .087-.043.087-.043.13 0 .173 0 .044.044.044.087.087h.043v.13h.044V27.331c0 .087-.044.087-.044.13l.044-.043v.217c0 .043.043.043.043.043v.26c.044.044.044.087.044.174v.217c0 .043 0 .13.043.173v.261l.043.043v.087c0 .043 0 .087.044.13 0 .043 0 .087.043.13v.13c0 .044.044.087.044.13 0 .043 0 .043.043.087V29.761c-.043.043-.043.086 0 .086 0 .087 0 .13-.043.217 0 0 0 .043.043.043 0 0-.043 0-.043.044.043 0 .043.13.086.087v.086l.044.044v.087c0 .043.043.13.043.217 0 .043 0 .086.044.173v.174c.043 0 0 .043 0 .086v.087c0 .044 0 .13.043.174.043.13.043.26.043.39v.086c0 .044.044.044.044.088v.086c.043.043.043.043.043.087s0 .087.044.173v.087c.043.044 0 .087 0 .174v.434c0 .043 0 .043.043.086v.434c0 .044 0 .044.043.087 0 .044.044.13.044.174 0 .043 0 .086.043.13v.52c0 .043.044.087.044.13v.13c0 .044.043.044.043.088v.086c0 .043.043.043.043.087l.044.043-.044.043c0 .044.044.044.044.087 0 .044 0 .044-.044.044 0 0 .044 0 .044.043.043.043.043.087.043.087v.043c0 .044 0 .044.043.044.044.043 0 .086 0 .086 0 .044 0 .087.044.13v.087c.043 0 0 .044 0 .044l.043.043v.13H6.3c-.044 0 0 0 0 .044v.52c0 .044.043 0 .043.044v.26s-.043 0 0 .043c0 0 .043 0 .043.043v.174s0 .043.044.043v.088c0 .043 0 .043.043.043v.086c0 .044 0 .044.044.087 0 .043-.044.043-.044.087l.044.043v.044c0 .043 0 .13.042.13v.173l.044.087v.044l.044.043v.087c.043 0 .043.043.043.087 0 .043 0 .086-.043.086-.044.044-.044.044-.044.087 0 .044.044.044 0 .087v.043c0 .044 0 .044-.044.087v.087c0 .043.044.043.044.043l.044.044c.043 0 .043.043.043.086V39.044c0 .044 0 .044-.043.087 0 0-.044 0-.044.044 0 0-.044 0-.044.042 0 .044.044 0 0 .044 0 0-.042 0 0 0H6.776s0 .044.044.044v.216c0 .044.044.044.044.087V39.868c.043.044.043.044 0 .044v.043s0 .043-.044.043h-.044l.044.044c.044 0 .044.043.044.043 0 .044 0 .044.043.044v.043s0 .043.043.043v.174c0 .043.043.087.043.13v.044c0 .043-.043 0-.043.043-.043.043-.043.087 0 .087h.043s0 .043.044.043c0 .044.043.044.043.087v.217l.043.043v.13c0 .044.044.087.044.13v.261c.043 0 0 .043 0 .043v.13l.043.043v.261c0 .044.044.13.044.173 0 .044.043.087.043.087v.39c0 .044.043.044.043.044v.217c-.043.043 0 .043 0 .043v.087c0 .043.044.043.044.087v.043h.043c0 .044 0 0 0 0v.13c-.043.044.044.044.044.087v.217s.043 0 0 .044v.043c.043 0 .043.043.043.043 0 .044 0 .044.043.087v.044h-.043l.043.043v.13l.044.043v.174c.043.043.043.043.043.086v.131c0 .043.044.086.044.086v.13c0 .044 0 .044.043.087v.044s0 .043.043.086c0 0 0 .044.044.044 0 0 0 .043.043.043 0 .043.044.043.044.087h.043c.043.043.043.043.043.087 0 .043.044.043.044.043v.043c.043 0 .043.044.043.044 0 .043.044.043.044.043s.043.044.086.044c0 0 .044 0 .044.043v.043s.043 0 .043.044c.044 0 .044 0 .087.043.043 0 .087.044.087.044h.086s.044 0 .087.043H9.033c.043 0 .086 0 .13-.043 0 0 .216-.087.216-.044-.043 0-.043-.043 0-.043h.044s0-.044.044-.044l.042-.043s.044 0 .044-.043h.043l.087-.087c.043 0 .043-.044.087-.044l.043-.043.044-.043s0-.044.043-.044v-.043l.043-.044v-.086c0-.044.044-.044.044-.044v-.086c0-.044 0-.044.043-.087 0-.044 0-.087.044-.13v-.173c0-.044.043-.044.043-.044v-.173c0-.044.043-.044.043-.088v-.086c0-.043 0-.087.044-.173 0-.044 0-.044.043-.044 0 0-.043 0-.043-.043v-.13c.043-.044.043-.087.043-.13v-.13c0-.044 0 0 .044-.044v-.13c0-.044 0-.087.043-.087v-.304c0-.043.043-.086.043-.13v-.347c0-.044 0-.087.044-.087v-.087c0-.043 0-.043.043-.043v-.173c0-.044.044-.044.044-.044v-.174s.043 0 .043-.043V41.387c0-.043.043-.043.043-.043v-.217c0-.044.044-.044 0-.087v-.13h.044v-.087c0-.043 0-.043.043-.087V40.216c-.043 0 0-.044 0-.044v-.824c.044 0 0-.043 0-.087 0 0 0-.044.044-.044V38.741s.043-.044 0-.044c0-.043 0-.043.043-.086v-.348c.043-.043 0-.043 0-.043 0-.043 0-.043.043-.043v-.304c0-.043.044-.087.044-.13v-.304c0-.043 0-.087.043-.13V37.092c0-.044.044-.044.044-.087V36.615h.043c-.043 0 0-.087 0-.087v-.217c0-.043.043-.086.043-.086v-.174s0-.043.044-.043c0 0 0-.044.043-.044v-.043s.043 0 .043-.044V35.661l.044-.044v-.26l.043-.044v.044c0 .043.044 0 .044 0h.086v-.087c0-.043.044-.043.044-.087v-.043s-.044 0-.044-.044v-.086h-.043c-.043 0-.043-.044-.043-.087v-.044l.043-.043v-.174c0-.043.043-.043.043-.086s.044-.087 0-.087v-.087c0-.043 0-.086.044-.13v-.564c.043-.043.086 0 .043-.086v-.044c0-.043 0-.087.043-.087h.043s.044 0 .044-.043 0-.043.044-.087c0 0 .043-.043.043-.086v-.131h.043V32.797c0-.043 0-.043-.043-.043 0 0-.043 0-.043-.044V32.493c-.044-.043-.044 0-.044.044-.044 0-.044-.044-.087-.044-.043-.043 0-.043 0-.086v-.131h.043v-.043c0-.043.044-.043 0-.086V31.583l.044-.044v-.173c.044 0 .044 0 .044-.044v-.173c.043 0 0-.044 0-.087v-.087s.043 0 .043-.043v-.304s0-.043.043-.043v-.044s0-.043.043-.043h.044s-.044-.043-.087-.043v-.044s.043 0 .043-.043l-.043-.044s-.043 0-.043-.043v-.13c0-.044 0-.044.043-.044 0 0 0-.043.043-.043h.044c.044-.043.044-.13 0-.174v-.26l.044-.043c0-.043-.044-.043-.044-.087v-.087c.044 0 0-.043-.044-.086 0-.044.044-.13.044-.174.044 0 .044-.043.044-.087l.042-.043v-.173c0-.044 0-.044.044-.044v-.043c.043 0 .043-.044.043-.044v-.086h-.043V28.372h.087l.65-.173s0 .043 0 0m6.855-8.504v.131l-.044.043c0 .043.044.043.044.043-.044 0 0 0 0 .044 0 0-.044 0 0 .044 0 .042 0 .086-.044.086-.043.043-.086.043-.086.087 0 .043 0 .043-.044.043v.087l-.043.043c0 .044 0 .044-.044.087 0 0-.042.043-.042.087 0 .043 0 .043-.088.043-.043 0-.043 0-.086.044 0 .043.043.043.043.086h-.043v.044c-.043.043-.043.087-.13.087-.044 0-.044 0-.087.043 0 0-.043.043-.043.087 0 0-.044 0-.044.043-.043 0-.086.044-.086.044s-.13.043-.13.086c-.044 0-.044.044-.044.044 0 .043-.043.043-.043.043s-.044.044-.087.044c-.043.043-.043 0-.043.043v.043h-.044l-.043.044c-.044 0-.044.043-.044.043h-.043c-.043 0-.043 0-.087.044 0 0 0 .043-.043.043-.044.043-.13 0-.087.087-.043 0-.087 0-.087.043 0 0-.087 0-.043.043h-.087c-.043 0-.043 0-.087.044v.043c0 .044-.043 0-.087 0h-.086s-.044-.043-.087-.043h-.13v-.044c-.044 0-.087.044-.087.044s0-.044-.044-.044c.044 0 .044 0 .044-.043s-.044-.043-.087-.043h-.043c-.044 0 0 0-.044-.044 0 0-.043-.043-.087-.043-.042-.043 0-.043-.042-.087l-.044-.043c-.044-.044-.044-.044-.044-.087v.043-.043c0-.043 0-.087-.043-.13v-.087c0-.043-.043-.043-.043-.043 0-.044 0-.044.043-.044v-.13h-.043v-.043c0-.044.043-.087 0-.13V20.475c0-.043.043-.043.043-.086v-.087s.043 0 .043-.044v-.043c0-.043.044-.043.044-.043s0-.044.044-.087v-.174s.042-.043.086-.043c.043 0 .043-.043.043-.043.044-.087.087-.13.13-.217.044 0 .087-.043.087-.087.044-.043.087-.043.087-.086 0-.044.087-.044.087-.087.043-.044.087-.087.13-.087.087-.087.13-.13.217-.174l.087-.086c.043-.044.043-.044.087-.044.043-.043.086-.043.13-.086.043-.044.043 0 .087-.044l.043-.043c.043 0 .13-.044.174-.044h.086c.044 0 0-.043.044-.043h.043c.043 0 .043 0 .087-.043h.087c.043 0 .086-.044.173 0H19.054c0 .043.043.043.086.043v.043c.044-.043.044 0 .088.044 0 .043.042.043.042.043v.044s0 .043.044.043v.087l.043.043v.043c.087.044.087.044.087.087 0 .044 0 .087.043.087v.087c.044.217.087.26.044.346m-1.128 6.29c0 .088-.13.045-.173.088-.044.043-.044.174 0 .217 0 .087.043.173.087.217 0 .043.043.087.043.13 0 .043.043 0 .043.043 0 .044-.043.044-.043.087 0 .044-.043.13-.043.13 0 .044.043.087.043.13 0 .043-.043.087-.043.13-.044.087-.087.13-.087.174v.13c0 .043 0 .043.043.043V27.721c0 .044-.043.044-.043.13 0 .044.043.044 0 .087 0 .044-.044.044-.044.044-.043.086 0 .086 0 .173 0 .044-.043.13-.043.174 0 .043 0 .13-.043.173 0 .044-.044.087-.044.13v.174c0 .13.044.217.044.347-.044.044-.044.087-.044.174v.52s-.043.043-.087.043v.087c0 .087 0 .174-.043.217l-.043.044c-.044.043 0 .13 0 .173v.347c0 .087 0 .13-.044.174 0 .043-.043.043-.043.087v.303c0 .044-.044.087-.044.13v.174c-.043.087-.043.087-.043.174v.259c0 .044-.043.044-.043.088v.303c0 .043-.044.043-.044.087V32.84c0 .044-.043.087-.043.087v.13c0 .087 0 .087-.044.174.087.087.044.174.044.26.043 0 0 .087 0 .087v.13c0 .044 0 .087-.044.13 0 .044 0 .087-.043.087v.174c0 .087 0 .13-.043.173v.087c0 .043 0 .043-.044.086-.043.044 0 .13 0 .174-.043.043-.087.087-.087.173v.131c0 .043 0 .043.044.043.087 0 .173-.087.173.043 0 0-.043.044-.043.131 0 .043 0 .043-.043.043h-.044c-.043 0-.087-.043-.087-.087-.043.044-.043.13-.043.174-.043.043-.13.043-.13 0-.087-.044-.044 0-.13.087-.044.086-.13.13-.217.173-.044.044-.087.044-.13.087-.043.043-.043.043-.13.087-.044.043-.087.087-.13.087-.088.043-.13.086-.217.13-.044.087-.087.13-.13.13-.044 0-.044 0-.087.043 0 .044-.044.044-.044.087-.043.044-.13 0-.173 0-.043 0-.043.044-.087.044h-.087c-.086 0-.217 0-.303-.087-.044 0-.087-.044-.13-.044-.044 0-.044 0-.087-.043-.044 0 0-.043-.044-.043 0-.044-.087-.087-.087-.131 0-.043-.043-.086-.043-.13 0-.043-.043-.087-.043-.13 0-.087.043-.13 0-.174.043-.043 0-.173 0-.217v-.737c0-.13.043-.217.043-.347v-.477c0-.043.043-.087.043-.174v-.998c0-.13 0-.217.044-.346.043-.088.087-.217.087-.305v-.173c0-.043.043-.086.043-.173 0-.044-.13-.347.043-.217v-.26c-.043-.087 0-.13 0-.217 0-.044.044-.174 0-.217.087-.174.044-.434.087-.65v-.261c0-.087.044-.218.044-.304 0-.043-.044-.13-.044-.13 0-.043.087-.043.044-.087-.087-.043 0-.347 0-.434 0-.13.043-.217.043-.347 0-.13.043-.26 0-.39 0-.13 0-.26.043-.39.044-.13.087-.217.044-.305.043 0 .043-.217.043-.26.044-.086.044-.13.087-.216.087-.174.174-.391.217-.564.043-.087.087-.174.173-.261.044-.087.13-.173.217-.217 0-.043.044-.087.13-.13.043 0 .043-.043.087-.087.044 0 .044 0 .087-.043h-.043c.043-.044.086-.087.13-.087.087-.043.13-.087.173-.13.173-.13.39-.217.564-.26.087-.044.217-.087.347-.087.087 0 .13.043.174.043.043 0 .087.043.13.043 0 0 0 .044.13.131.044.043.087.086.087.13.043.087.043.173.087.217 0 .043 0 .087.043.13 0 .043 0 .043.044.043v.044c-.087 0-.087.13-.044.173.044 0 .044.087.13.087m3.991-3.34s.044 0 0 0c.087-.044.13-.044.13-.044h.13c.087-.043.218-.043.304-.043.044-.044.087-.044.13-.044h.087c0-.043.044-.043.087-.043s.13-.043.174-.043c.043 0 .13-.043.173-.043.044-.044.044-.088.086-.088 0 0 .044-.043.13-.043.044 0 .087 0 .131-.043h-.087c0-.087.043-.087.087-.087l.044-.044c.043 0 .086.044.13 0 .043 0 0-.086.087-.086 0-.043.042 0 .042-.043h.174c.043 0 .043.043.043 0 0 0 .044 0 .087-.044 0 0-.043 0-.043-.043h.043v-.043.043l.044-.043v-.044h.086c.044 0 .044 0 .087-.043v-.044h.13s.044 0 .087-.043H25.258c.043 0 .13.043.173.043.044 0 .044 0 .087.044.043 0 .043.043.043.043.044 0 .087.044.13.087l.044.043c.043 0 0 0 .043.044h.044c0 .043 0 .043.043.086 0 .043.043.043.043.043.044.044 0 .044 0 .088 0 0 .044 0 .044.043v.043s0 .043.043.043l.044.044h.043s-.043 0 0 0v.044s0 .043.043.043v.043s0 .043.044.087c0 .043 0 .087-.044.087v.086c0 .044-.043.217 0 .217 0 .044 0 .13-.043.174l-.043.043v.087c-.044 0-.044 0-.087.044l-.044.043c0 .043-.043.087-.043.13-.087 0-.13.13-.173.174 0 0-.044 0-.044.043l-.043.043h-.044c-.043.044-.043.087-.086.087-.044.044-.087.044-.131.087 0 0-.043 0-.086.043 0 0 0 .044-.044.044h-.043v.043c-.044 0-.044.043-.044.043-.043.044-.086.044-.13.087-.043.044-.043.044-.087.044 0 .043-.043.043-.086.086-.044 0-.044.044-.087.044 0 0-.044 0-.044.043 0 0 0 .044-.043.044h-.087s0 .042-.043.042v.044l-.044.044c-.13.217-.173.217-.173.217s-.044 0-.044.043v.043c0 .043-.042.043-.042.087-.044.043-.088.086-.088.13-.043.043-.043.087-.086.13-.043.043-.087.087-.087.13-.044.044-.087.087-.087.13l-.043.044c0 .043 0 .043-.043.087-.044 0-.044.043-.044.086 0 .044-.044.087-.044.087-.042.044-.042.044-.042.13 0 .044 0 .044.042.087-.042.044-.086.044-.13.087 0 0-.043.043 0 .087 0 0 .044 0 .088.043-.044.044-.044 0-.087.044 0 .043-.044.043-.044.086v.087c0 .043.044.043 0 .087l-.086.087v.086c0 .044-.044.044-.044.087v.174c0 .043.044.043.044.086v.043h-.044c-.043 0-.043 0-.043.044s-.044 0-.044.044c.044 0 .087.043.044.086v.087c0 .044-.044.044 0 .086 0 .044 0 .044-.044.087v.174c0 .043 0 .043.044.043 0 .044-.044.13-.044.174v.26c0 .044.044.044.044.044 0 .043-.044.086-.044.13v.173c0 .044.044.13 0 .13v.087c-.043 0-.043.044-.043.087V29.5c-.043 0 0 .044 0 .044 0 .043 0 .086-.043.086v.651h.043c0 .043-.043 0-.043.043 0 0 0 .087.043.13 0 .044.043.087 0 .13 0 .044 0 .087-.043.087-.044.044 0 .13 0 .174V31.366c0 .086 0 .13-.044.217v.086l-.043.044v.043c-.043 0-.087.086-.087.13-.043.044-.043.087-.043.13 0 .043-.044.087-.087.13 0 .044-.043.087-.087.13 0 .044-.043.044-.043.044-.044 0-.044.043-.044.043-.043.043-.13.087-.173.174l-.044.043v.043h-.086l-.044.044c-.043 0-.043.043-.043.043 0 .044 0 .044-.044.044-.043 0-.043.043-.043.043s-.043 0-.043.043c0 0 0 .044-.044.044h-.043s0 .043-.044.043h-.043c-.043 0-.043.044-.043.044-.044.043-.087.043-.13.086-.044.044-.174 0-.174.044h-.043c0 .043-.087.043-.087.043-.044 0-.087.044-.13.044h-.087c-.044 0-.044 0-.044.043h-.216c-.043 0-.087-.043-.13 0-.044-.043-.044-.043-.087-.043 0 0-.043-.044-.087-.044V33.1h-.043s-.043 0-.043-.044h-.044l-.043-.043s0-.043-.044-.043c-.043-.044-.043-.044-.043-.087l-.043-.044v-.043h-.044v-.043l-.043-.044v-.087c0-.043-.044-.043-.044-.043v-.997c0-.044 0-.044-.043-.13v-.174c0-.043.043-.087.043-.13v-.174c0-.043.044-.13 0-.173v-.087c0-.044-.043 0 0-.044.044-.043.044-.086 0-.173 0-.087 0-.13-.043-.174v-.087c0-.043-.043-.043-.043-.086 0 0 .043-.044.043-.087v-.26s.043-.043.043-.087V29.5c-.043-.044 0-.087 0-.173 0-.044-.043-.044-.043-.087s.043-.043.043-.087v-.087c-.043 0 0-.216 0-.216-.043 0 0-.087 0-.087.044-.044 0-.044 0-.087-.043 0-.043-.174 0-.174.044-.043.044-.13.044-.173 0-.043.043-.043.043-.087v-.217c0-.043 0-.13.044-.13-.044-.043 0-.043 0-.087v-.26c0-.087.043-.13.043-.173V26.42c0-.087.043-.217.043-.347 0-.087.044-.173 0-.304v-.13s.044-.087 0-.087v-.347c0-.13.044-.217.044-.304 0-.13 0-.26.043-.346 0-.088.044-.13.044-.217s0-.13.043-.174v-.087c.043-.043.043-.086.087-.173.043-.043.043-.13.043-.174 0-.043.043-.086.087-.13 0-.043 0-.043.043-.043h.044v-.087c.043-.043.043-.087.086-.13l.13-.13.217-.217s.043 0 .043-.044l.044-.043.044-.043c.043 0 .043-.044.086-.044 0 0 .043-.043.087-.043.043 0 .043 0 .086-.044 0 0 .044-.043.087-.043.044-.043.13-.087.174-.087.087 0 .13-.043.217-.087.043.087.043.087.043.13m34.36-3.643c-.044 0-.044 0-.044.043v.043c0 .044-.087.044-.087.087.043.044.043 0 .087 0v.087s.043 0 .043.043l-.043.044h-.087v.087c0 .043-.044.043-.044.086v.087s0 .043-.043.043 0-.043 0-.043c-.043-.043-.087.043-.087.086 0 .044-.043.044-.043.044v.087c0 .043.043.086 0 .086 0 .044-.044-.043-.044-.043h-.043v.043l-.043.044c0 .044-.044.044-.044.086 0 .044-.043.044-.087.131 0 .086-.086.13-.086.173-.044.044-.087.044-.087.044 0 .043 0 .043-.043.043.043.043-.043.043-.087.087 0 0-.087.043-.087.087 0 0-.043 0-.043.043-.087.043-.173.13-.304.217-.043.043-.086.087-.13.087-.043.043-.217.13-.26.173-.043.044-.087.044-.13.044-.087.043-.217.087-.304.13-.087.043-.174.087-.26.087-.044.043-.13.043-.174.043l-.39.13c-.043 0-.13.044-.217.044-.043 0-.13.043-.174.043-.13.043-.26.087-.347.13-.086.044-.347.13-.39.13-.087.044-.13.044-.174.087-.13.043-.26.086-.347.13-.043 0-.087.044-.13.044-.043.043-.13.086-.13.086-.044.043-.087 0-.13.043-.044 0-.087.044-.13.044-.044.044-.087.044-.13.044-.044 0-.088.043-.13.086h-.088c-.043 0-.043.043-.086.043-.043.044-.087.044-.13.044-.044 0-.087.043-.13.043-.044 0-.044 0-.088.043 0 0-.086 0-.042.044h-.087s0 .043-.044.043c-.043 0-.086.044-.173.087-.044.043-.087.043-.13.043-.044.044-.087.044-.13.044-.044.043-.087.043-.131.087-.043 0-.13.043-.173.043l-.044.043c-.043 0-.043.044-.043.044-.043.043-.13.043-.13.087h-.044s-.043 0-.043.043c-.043 0-.043.043-.087.043-.043.044-.087.044-.13.087-.087.044-.13.087-.217.13-.043 0-.087.044-.174.044-.043 0-.043 0-.086.043-.044 0-.044.044-.087.087-.044.043-.086.043-.13.043l-.044.044c-.043 0-.13.087-.13.087-.043 0-.043 0-.087.043-.043 0-.043.043-.043.043-.043.044-.086.044-.13.087l-.043.043h-.087c0 .044-.087.044-.13.087h-.043c-.044.044-.044 0-.087.044 0 .043 0 .043-.043.043-.044 0-.044 0-.044.043-.043 0-.13.087-.173.087 0 0-.044 0-.044.044-.043 0-.043 0-.087.042v.044h-.043c-.043.044-.087.044-.087.087-.087 0-.13.043-.217.086-.043.044-.087.044-.13.088-.043 0-.087.043-.13.086-.044 0-.13.087-.174.087-.043.043-.13.043-.173.086l-.044.044h-.043c-.044.043-.044.043-.086.043-.044 0-.088.044-.13.087-.044 0-.087.043-.175.087h-.043s0 .043-.043.043h-.087s0 .044-.044.044c0 0-.042.043-.086.043-.043 0-.087.043-.13.043 0 0-.043 0-.043.044l-.044.043c-.043 0-.13.044-.13.087-.043 0-.087 0-.13.043-.043 0-.043 0-.043.044-.044 0-.044.043-.087.043-.044.044-.13.044-.174.087-.043 0-.043 0-.043.043 0 .044-.13.044-.174.044-.043 0-.043.043-.043.043-.044.044-.087.044-.174.087 0 0-.043.043-.087.043l-.043.044h-.043l-.044.043-.043.044h-.044c-.043 0-.086.043-.086.043-.044 0-.044.043-.044.043-.043 0-.043 0-.043.044 0 .043-.087.043-.13.086 0 0-.044 0-.044.044h-.043c-.043 0-.13.043-.174.087-.043.043-.086.043-.13.086-.043 0-.043.044-.043.044-.044 0-.086.043-.13.087l-.043.043c-.087.043-.217.087-.304.173-.043.043-.087.043-.173.087-.261-.173-.261-.173-.304-.173 0 .043-.044.043-.044.043-.043.043-.086.086-.173.086-.044 0-.087.044-.087.044 0 .044-.043.044-.087.044 0 0-.043 0-.087.043v.043h-.043c-.043 0-.043.043-.087.043-.043.044-.043.044-.087.044-.043 0-.043.044-.086.044-.044.042-.087.086-.13.086-.044 0-.044.043-.087.043l-.044.044c-.043 0-.043 0-.087.043 0 0-.042.043-.086.043-.044.044-.044.044-.087.044s-.043.043-.043.043c0 .087-.043.087-.087.087-.044.043-.087.043-.13.087-.043.043-.087.087-.13.087-.043.043-.13.086-.174.086-.043.044-.086.044-.13.087-.043.044-.13.044-.173.087-.087.043-.174.13-.304.174-.043.043-.087.043-.13.086-.044 0-.087.044-.13.087-.087.087-.217.087-.304.174-.044.043-.087.043-.174.087-.043 0-.043.043-.087.043l-.043.043h-.043c-.044 0-.044.044-.044.044l-.043.043c-.044 0-.044 0-.044.043l-.042.044c-.044.043-.088.043-.13.043-.087.044-.13.087-.13.087-.045 0-.088.043-.131.087-.043 0-.043 0-.043.043-.044.043-.044.043-.088.043-.042 0-.086.043-.13.087-.086.044-.13.044-.13.087 0-.043-.086.043-.13.043 0 .043-.043.043-.086.043 0 0 0 .044-.044.044h-.043c-.043.044-.087.044-.13.087-.044.043-.13.043-.174.086 0 0 0 .044-.043.044-.044 0-.044 0-.087.043-.043 0-.043 0-.043.043-.044 0-.044.044-.087.044 0 .043-.044.043-.044.043-.043 0-.043 0-.043.044 0 0 .043 0 .043.043s-.043.043-.086.043H37.1c-.044 0-.044 0-.087.044v.043c0 .044-.043.044-.087.044-.043 0-.043 0-.087.043-.043.043-.086.043-.173.087-.044.043-.087.087-.13.087-.044 0-.044.043-.087.043 0 .043 0 .043-.043.043-.043.044-.087.044-.13.087l-.044.044c-.043 0-.043 0-.043.043-.043.043-.087.043-.13.087 0-.044-.13.087-.13.087h-.087c-.043 0-.043 0-.043.043h-.087s0 .043-.044.043h-.043s-.043 0-.087.044v.043s-.043.044-.043 0c-.043 0-.043.044-.087.044 0 0 0 .043-.043.043l-.044.043-.043.044h-.13v.086h-.044c-.043 0-.043 0-.043.044h.087-.044c0 .043 0 .043-.043.043 0 0 0 .044-.043.044v.086c-.044.044-.044.044-.044.087l-.043.044-.044.042h-.13s0 .044-.043.044c0 .044-.044 0-.044.044-.043 0-.043.043-.043.043s-.043 0-.043-.043l-.044.043c0 .043-.043.086-.087.086-.043 0-.043 0-.043.044v.13s-.043 0-.043.043v.044c0 .043-.044.043-.044.086 0 .044.044.044.087.044v.087c0 .043-.043.043-.043.043s-.044-.043-.044 0h.044v.043c0 .044 0 .044-.044.087 0 .044 0 .044.044.044v.173l-.044.044v.043c0 .043 0 .087.044.087l.043-.044v.087c0 .044-.043.044-.043.044v.043s-.044 0-.044.043l-.043.044s0 .043-.044.043v.087l.087.043c.044 0 0-.043.044-.043v.043s0 .044-.044.044v.13s-.043 0-.043.043c0 .044 0 .087-.044.087 0 0-.043 0-.043.043 0 .044 0 .044.043.044h.087v.043h.044v.174c0 .043 0 .043-.044.043V34.445c0 .044-.043 0-.043.044v.044s.043 0 .043.043v.086s.044 0 .044.044h.043v.044c0 .042-.043.042-.043.042v.044c0 .043 0 .043-.044.043-.043 0 0-.043 0-.043h-.043s-.044.043 0 .087v.086c0 .044 0 .044.043.087l.044.044s.043 0 .043.043v.13l-.043.044c-.044 0-.044 0-.044.043v.087c.044 0 .087 0 .087.043 0 .044-.043.044-.043.044v.043l.043.043v.087s0 .044-.043.044h-.044v.086h.044c.043 0 .043.044.043.044-.043.043-.043 0-.043.043v.044s.043 0 .043.043l-.043.043c-.044 0-.044.044-.044.044 0 .043 0 .043.044.087 0 .043 0 .043-.044.086v.087h.044c0 .043-.044.043-.044.043v.087c0 .044.044.044 0 .087v.043c0 .044 0 .044.044.044h.043c0 .043 0 .043-.043.086l-.044.043v.044c-.043.044 0 .044.044.044v-.044s0 .044.043.044v.043l-.043.043v.043h.043v.044h-.043s-.044 0-.044.044v.173c0 .043 0 0-.043.043h.043c.044 0 0 .043 0 .043s-.043.044 0 .044h.044v.173h.043v.044s.043-.044.043 0h-.043v.173c-.13-.043-.13 0-.13.044v.087h.043l-.043.043v.087h.043v.087h-.043v.173h-.044v.087l.044.043v.087l-.044.044h-.043c-.043 0-.043 0 0 .043h.043c.044 0 0 .043 0 .087V38.958c0 .043-.043 0-.043 0h.043v.13h-.043v.043c0 .044.043.044.043.044s0 .042.044.042h.043v.174s0 .043-.043.043v.088c-.044 0-.044 0-.044.043h.087v.043s-.043 0 0 0h.044c.043 0 0 .043 0 .087 0 0-.044.043-.044.086-.043 0-.043.087-.043.087.043.044.043-.043.043-.043h.044c.043 0 0 0 0 .043l-.044.044v.086h.044s0-.043.043-.043c0 .043-.043.043-.043.043s-.044 0 0 .044h.043s.043 0 0 .043c-.043 0-.043 0-.043.044v.043c.043 0 .043.043.043.043h.043c-.043.044-.086.044-.086.044-.044 0-.044 0-.087.043v.13-.043c0 .043-.044.043-.044.043s-.043 0-.043.044c0 .043.043 0 .043.043.044 0-.043.087.044.087h.043v.043s-.087 0-.043.044h-.044c0 .043 0 0 .044.043 0 0 0 .044.043.044v-.044h.044c0 .044-.044.044-.044.044 0 .043.044-.044.087-.044l.043.044c.044 0 0 .043.044.043v.087s-.044 0-.044-.044c0 0-.043-.043-.086-.043l-.044.043c-.043 0-.087 0-.043.044.043 0 .043.043.043.043v.044l.044.043c.043 0 .043 0 .086.043.044.044.044.044-.043.044h-.087c0 .043 0 .043.044.086h.043v.044c.043.043-.043.043-.043.087.043.043.043 0 .043.043v.043c-.043.044-.043.044-.087.044h-.087c-.043 0-.086-.044-.086 0 0 .043.043.043.086.043h.087v.044h-.043s-.044 0-.044.043v.043c.044 0 .044.044.044.087s-.044.043-.044.086c0 0 0 .044-.043.044 0 0 0 .044-.043.044-.044.043-.044.043 0 .086h.043v.043c.043 0 .043 0 .043.044v.13c0 .043 0 0 .044 0h.043v-.044h.044c-.044 0-.044 0-.044.044 0 .043.044.043 0 .087 0 .043-.043 0-.043.043 0 0 .043 0 .043.043v.044h.044c0-.044 0-.044.043-.044h-.043v.087c-.044.044-.044 0-.044.044 0 .043.044.043.044 0 0 0 0-.087.043-.044 0 .044 0 .087-.087.087h-.087v.087h-.043c-.043 0 0 .043-.043.043 0 0-.087.044 0 .044h.043v.043c0 .043-.043.043 0 .087.043.043.043 0 .087.043.043 0 0 .087 0 .087 0 .043.043.043.043.043.044 0 .044.044.044.087-.044 0-.174-.043-.174 0 0 .044-.043.044-.043.087s.043.043.043.087c0 .043-.043.043-.043.087l.043.043v.043h.087l.043-.043c0-.043-.043-.043 0-.043 0-.044.044 0 .044.043 0 0-.044 0-.044.043v.174c.044 0 .044 0 .044.043 0 0 .043 0 .043.044-.043 0-.043.043-.043.043-.044 0-.174 0-.13.043v.087c0 .044.043.044.043.044.043.043 0 .13 0 .13s-.044.043-.044.086.044.087.087.087c0 .044-.043.044-.043.087h.087v.086c.043-.043.13-.043.13 0v.044c0 .044 0 0-.044.044h-.086c-.044.043.086.13 0 .173-.044 0-.044.043-.044.043 0 .043.044 0 .044 0 .086-.043.173 0 .13.043h-.087s0 .044-.043.044v.13s.043.043.086.043c0 0 0-.043.044 0v.044c0 .043-.044.043-.044.043-.086.087.044.044.087.087.044.043-.087.043-.087.087h.087c0 .043 0 .043-.043.043v.087l.043.043h-.043v.044c0 .087-.044 0 0 0 0-.087-.13-.087-.13 0 0 .043.043.043.043.087.043 0 .043.043 0 .086l-.043.044v.043h-.044v.044s-.043 0 0 .043c0 0 .044 0 .044.043v.087h.043c.043 0 .043.044.043.044v.043h.044v-.043h.043c.044 0 .044.043.044.043v.043h.13v.13c-.044 0-.044.044 0 .044v.043l-.044-.043v.043l.044.044s.043.043.043.086v.044c0 .043 0 .043.044.043 0 .044.043 0 0 .044 0 0-.044 0-.044.042h.044v.044h.043s-.043.044 0 .044.043-.044.043-.044c.044.044 0 .044-.043.044 0 .043.043.043.043.043 0 .043-.043.043-.043.086v.044l-.043.044s-.044.043-.087.043c0 .043.043.043.043.043-.043.043-.043.043-.087.043h-.13s-.13.044 0 .087v.043c.044-.043.044-.086.044-.086.043 0 .086.043.086.043 0 .043-.043.043-.086.043-.044 0-.087-.043-.087 0v.044c0 .043 0 0 .043.043.044 0 0 .044-.043.044v.13l.043.043c.044.044-.043.044-.043.044l.043.086c0 .044.13.087.13.087.087-.043 0-.087.044-.13 0 0 .043 0 .043.043 0 .044 0 0-.043.044 0 .043 0 .086.043.13 0-.044-.043-.087.044-.044 0 0 0 .044.043.044-.043.043 0 .043.043.043 0 0 0 .044.044.044l-.044.043c-.043 0-.043-.043-.043-.043-.043-.044-.087.043-.087.043.044.043.087-.043.087 0 .043.043.043.087.087.087.043.043.043 0 .043.043h.087c0 .044-.043.087-.043.087s.043-.087 0-.087c-.044 0-.087.044 0 .044 0 0 0 .043-.044.043 0 0-.043-.043-.087 0h.044c-.044.043.043.043.043.087 0 .043-.043.043-.087.043 0 0 0 .087-.043.087h-.087l-.043-.043c0-.044 0-.044-.044-.044v.044h.044v.043c0 .043.043.043.087 0 .043 0 0-.043.043 0h.043c0 .043-.043.087.044.087 0 .043-.044 0-.044 0 0 .043 0 .043-.043.043h-.043c-.044.044 0 .044 0 .044s0 .043.043.043l-.043.043h.086s0 .087.044.044c0 .043 0 .043-.044.043 0 .044.044 0 .044-.043.043.043 0 .043-.044.087 0 .043.044.043.044.086l-.044.044c0 .043.044.043.044.043v-.043s0 .043.043.043c.044 0 .044-.043.044 0 .043 0 0 .044.043.044s.043 0 .043-.044v.087c-.043 0-.086.043-.086.087-.087.043-.044.043-.044.086v.043h-.043s.043 0 .043.044c0 0 0 .044.044.044.043.086-.087.043-.087.043v.043c0 .043-.044.043-.044.087v.086h.087c.044 0 .087.044.13.044l-.043.043c-.043 0-.043.044-.043.044v.043h-.087v.043h-.044v.044c0 .043-.043.087-.043.13 0 .043 0 .043-.043.087 0 0 0 .043-.044.043-.043.043-.087.087-.087.13l-.043.044-.043.043-.39.26c-.044 0-.044 0-.088.044-.043 0-.043.043-.043.043h-.086c-.044 0-.044 0-.088.044-.086.043-.217.043-.303.043h-.304c-.043 0-.13 0-.173-.043-.13-.044-.26-.087-.347-.13-.044 0-.087-.044-.13-.087-.044 0-.087-.044-.13-.087l-.131-.13c-.043 0-.043-.044-.043-.087l-.044-.044-.086-.086c-.044-.044-.044-.087-.087-.174v-.173c-.044-.044-.044-.13-.087-.173v-.088c-.043 0 0-.043-.043-.086 0-.043-.044-.13-.044-.174 0-.043 0-.043-.043-.086v-.044h-.044v-.52c0-.044-.043-.174-.043-.174v-.26c0-.044-.043-.044 0-.087v-.043c.043-.044 0-.087-.043-.087v-.26c0-.044.043-.087.043-.087v-.174c0-.043-.043-.13-.043-.173 0-.087.043-.174.043-.26V46.376c0-.043.043-.174 0-.174v-1.041c0-.043.043-.043.043-.087v-.086c0-.044.044-.087.044-.13 0-.044-.044-.044-.044-.087v-.087c0-.044 0-.13.044-.173v-.781c0-.044.043-.13.043-.174v-.087c0-.043-.043-.043-.043-.086 0-.044.043-.044.043-.087v-.694c0-.044.044-.087.044-.13v-.174c0-.087 0-.173-.044-.304v-.304c0-.043.044-.086.044-.173v-.13c0-.043.043-.087.043-.13 0-.087-.043-.13-.043-.174 0-.043.043-.043.043-.086v-.087c-.043 0-.043-.087-.043-.087 0-.043 0-.043-.044-.087v-.086c.044-.044.044 0 .087 0v-.217l.043-.044c0-.043-.043-.043-.043-.043v-.174c-.043 0 0-.043 0-.043v-.868s-.043-.044-.043-.086V36.05c0-.043.043-.13 0-.174v-.867c0-.13.043-.26.043-.348 0-.043-.043-.043-.043-.043 0-.043.043-.043.043-.086v-.564c-.043.043-.087.043-.13.043v.043h-.044s-.043 0-.043.044c-.043 0-.087.043-.13.043-.044.044-.086.087-.13.087-.044 0-.044 0-.087.043-.043 0-.043.044-.043.044-.043.043-.087.043-.13.086-.044.043-.087.043-.13.087-.044 0-.088.044-.13.087-.044 0-.044.043-.087.086-.044 0-.087.044-.13.088-.044.043-.087.043-.13.086-.044.043-.087.043-.131.087l-.043.043c0 .044 0 .044-.043.044-.044.043-.044 0-.087.043 0 0-.044.043-.044.087-.043.043-.086.043-.13.087-.043.043-.13.086-.13.13-.043 0-.087.087-.13.087 0-.044-.044.043-.044.086-.043 0-.086.044-.086.044-.044.043-.087.043-.087.087-.044 0-.044.043-.087.043-.043.043-.043.043-.087.043-.043 0-.087.044-.087.044s0 .043-.043.043-.043.043-.043.043-.044.044-.087.044c0 .043 0 .043-.044.043-.043 0-.043 0-.086.044l-.044.043h-.043v.043c-.043.044-.043.044-.086.044l-.044.043h-.044c-.043 0-.043.044-.043.044-.043.043-.086.043-.086.086-.044.044-.088.044-.13.087-.044 0-.044.043-.087.043 0 .044 0 .044-.044.044h-.043s0 .043-.043.043c-.044.044-.13.087-.174.087 0 .043-.043.087-.043.087s-.044 0 0 .043c-.044.043-.044.043-.087.043l-.043.043c-.044.044-.087.044-.131.088-.043.043-.086.086-.13.086-.043.043-.087.043-.13.087-.043 0-.043.044-.087.044-.043 0-.043 0-.087.043-.086.086-.173.173-.26.216l-.13.131c0 .043-.044.043-.044.043s0 .043-.043.043h-.043c-.044 0 0 .044-.044.087h-.043s-.044 0-.044.044l-.043.043-.043.043c-.044 0-.044 0-.087.044 0 .043 0 .043-.044.043-.042.044-.086.087-.13.087l-.13.13c-.043 0-.043.044-.087.044 0 0 0 .043-.043.086h-.043v.044c-.043.043-.043.043-.087.043l-.13.13-.043.044c0 .043-.044.043-.044.043v.044c-.043.043-.043.043-.086.043 0 .043-.044.043-.087.087-.043.043-.087.043-.087.086l-.13.13c-.043.044-.087.087-.13.087l-.13.13s-.044 0-.087.043v.044h-.044l-.13.13c-.087.043-.173.13-.26.174-.044.043-.087.13-.174.13-.043.043-.087.086-.173.086l-.087.087c-.086.044-.174.13-.26.217l-.13.13-.13.13-.044.044c-.044.043-.044.043-.044.087l-.13.13-.13.13c-.086.044-.173.087-.216.13l-.087.087c-.043 0-.043.044-.087.087-.043 0-.043.043-.087.043l-.043.044c-.043 0-.043.043-.043.043-.044.043-.087.043-.13.087l-.044.043c0 .044-.043.044-.087.044 0 0-.043.043-.087.043 0 0 0 .043-.043.043 0 0-.043 0-.087.044-.043 0-.043.043-.087.043-.043.044-.086.087-.13.087v.087c-.043.043-.043.043-.087.043-.043.043-.043.086-.086.13-.044.044-.044.044-.087.044-.044 0-.044 0-.044.043s-.043.086-.086.13c-.087.044-.087.086-.13.13l-.043.043c0 .044-.044.044-.088.087l-.086.087s0 .043-.043.043c0 0-.044 0-.044.044-.086.043-.086.086-.13.13 0 .043 0 .043-.043.043 0 0-.044 0-.044.044-.043 0-.086.043-.13.086l-.087.087c-.043.044-.086.044-.13.087l-.173.174c-.044.043-.087.13-.13.13l-.087.087c0 .043 0 .043-.044.086l-.086.087s-.044 0-.044.044l-.043.043v.043c0 .044-.087.044-.087.087-.043.043-.043.087-.087.13-.043 0-.043.044-.087.044-.043 0-.043.043-.086.086-.044.044-.044.087-.087.087l-.044.043c-.086.043-.173.13-.217.217-.043.087-.086.217-.173.26-.044.044-.086.044-.13.087-.044.043-.087.087-.087.13-.043.044-.043.044-.043.087l-.043.043c-.044.044-.044.087-.088.13-.043.044-.086.087-.086.131 0 .043-.043.043-.043.043-.044 0-.044.044-.044.044h-.043c-.043.043-.043.086-.087.13 0 0-.043 0-.043.043-.044 0-.044.044-.044.044l-.086.086c-.044.044-.044.087-.087.13-.043.044-.087.044-.13.087 0 0 0 .044-.044.087-.043 0-.043.044-.043.044-.043.043-.13.086-.087.13 0 .043-.087.043-.087.086l-.13.13c-.043 0-.043.044-.087.044l-.043.043c-.043 0-.043.044-.043.087h-.044c-.043 0-.043.044-.043.044v.042l-.044.044-.043.044c-.043 0-.043.086-.087.13 0 .043-.043.043-.043.087l-.13.13s-.044.043-.044.086c-.043 0-.043 0-.087.043v.087c0 .044-.043.044-.086.044 0 0 0 .043-.044.086 0 0-.043 0-.087.044-.042 0-.042.043-.042.043 0 .044-.044.044-.044.044 0 .043-.044.043-.044.043 0 .043-.043.043-.043.087 0 .043-.043.043-.043.087 0 0-.043 0-.043.043-.044.043-.044.087-.13.13-.044 0-.087.087-.087.087-.044 0-.088.043-.088.087-.042.043-.086.043-.086.13h-.043v.043c-.087.087-.13.13-.217.174l-.13.13-.044.043c0 .044 0 .044-.043.087-.043 0-.043 0-.087.044 0 .043-.043.043-.043.043-.044.043-.044.087-.087.13 0 .044-.043.044-.043.044-.044.043-.044.043-.087.043-.044 0-.044.043-.044.087-.043 0-.086 0-.086.043-.044 0-.044.043-.044.043-.043 0-.043 0-.087.043-.043.044 0 .044-.043.044h-.087c-.043 0 0 .044-.043.044 0 .043 0 .043-.087.043h-.174c-.043 0-.086.043-.086.043-.044 0-.044-.043-.087-.043-.044 0-.087 0-.087.043-.043 0-.087 0-.087-.043h-.173c-.044 0-.13 0-.173-.043-.044 0-.044 0-.088-.044h-.086c-.043 0-.043-.044-.087-.044-.043 0-.043 0-.086-.043-.087-.043-.174-.13-.304-.173-.043-.043-.043-.087-.13-.13-.044-.044-.087-.044-.087-.087-.043-.043-.043-.087-.043-.13-.044-.044-.044-.044-.044-.087-.043-.043-.043-.13-.087-.173 0-.044 0-.044-.043-.087-.043-.044-.043-.087-.043-.13 0-.044-.044-.087-.044-.087v-.13c0-.087-.087-.13-.043-.217 0-.044.087-.174.043-.217 0-.044.044-.044 0-.087 0-.044.044-.13.087-.174.043-.043.043-.13.13-.173.044-.044.087-.13.13-.173.087-.088.13-.174.174-.26.087-.087.217-.218.26-.348.044-.043.087-.13.13-.13l.173-.173c.088-.131.217-.261.348-.348l.26-.26.26-.26.13-.13.13-.13c.044-.044.087-.088.131-.13l.087-.088.086-.086c.087-.087.217-.174.304-.304.087-.087.217-.173.304-.26.043-.043.087-.087.13-.174.043-.043.13-.086.174-.13.086-.086.173-.217.303-.303l.13-.131.043-.043.044-.043c.044 0 .044-.044.086-.087l.044-.044.087-.086c0-.044.043-.044.086-.087.044 0 .044-.044.087-.087.044-.043.13-.087.174-.13h.043v-.044c.044-.043.044-.086.087-.086.043-.044.087-.044.13-.087l.13-.13c.087-.087.217-.173.304-.26.044-.044.13-.087.174-.13.043-.044.13-.088.173-.13.044 0 .044-.044.044-.087l.086-.087c.044-.043.087-.13.174-.13 0 0 .13-.087.173-.13.043-.044.087-.13.174-.13 0-.044.043-.044.043-.044.043-.043.087-.087.173-.13.044-.043.044-.043.087-.043l.087-.087.043-.087c.044 0 .087-.043.087-.043.13-.087.217-.217.391-.304.13-.087.217-.174.304-.26.043-.044.086-.087.173-.13 0-.044.044-.044.087-.044 0 0 .043-.087.043-.044.044-.043.044-.086.087-.13 0 0 .087-.043.087-.087.087-.086.217-.216.304-.26.043-.043.13-.087.173-.13 0-.043.044-.043.044-.086 0 0 .042-.044.042-.088.088-.042.13 0 .13-.086.044-.043.087-.087.131-.087.044-.043.217-.13.217-.217.043 0 0 .044.043.044 0-.087.174-.087.174-.174.086 0 .13-.086.173-.13.087-.087.174-.13.26-.217.087-.087.174-.13.261-.217.043-.043.043-.043.087-.043l.087-.087c.043-.043.13-.087.173-.13.087-.087.217-.174.304-.26.13-.087.217-.174.304-.26.086-.044.086-.088.173-.088l.13-.13c.044-.043.13-.087.13-.13.043-.043.13-.086.173-.086.044-.044.087-.088.131-.13.043-.044.086-.044.13-.087l.087-.087c.043 0 .086-.043.086-.043 0-.044.044-.044.044-.087.043 0 .087-.044.087-.087.043-.043.043-.043.043-.087 0 0 .043-.043.087-.043.087-.043.087-.087.173-.13v-.087c0-.043.044-.043.044-.043.043-.044.043-.044.087-.044.043-.043.086-.043.13-.087.043 0 .087-.043.13-.086.043 0 .043 0 .087-.044.043 0 .043-.086.043-.086v.043c.044 0 .044-.043.044-.043.043 0 .043-.044.086-.044l.044-.043c.043-.044.086-.087.173-.087-.043-.043 0-.043.044-.043.043 0 .043-.044.086-.044.044-.043.087-.087.13-.087h.043v-.043c.044 0 .088 0 .088-.043.043 0 .043-.044.043-.044s.043 0 .043-.043c.043 0 .087-.044.13-.087.043 0 .087-.043.13-.087.044 0 .044-.043.044-.043 0-.044.043-.044.043-.044l.043-.043s.044 0 .044-.043c.087-.043.13-.087.217-.13.087-.044.13-.087.217-.174l.13-.13c.043-.043.043-.043.087-.043.043 0 .043-.044.087-.044.043 0 .043-.043.086-.086 0 0 .044 0 .087-.044 0-.043.044-.043.044-.087.043-.043.086-.043.086-.043.044 0 .044-.043.087-.087.044-.043.087-.043.13-.087.044 0 .044-.043.087-.086.043-.044.13-.044.087-.087.043 0 .043 0 .087-.043 0 0 .043 0 .086-.044 0-.043.044-.043.087-.043.044-.044.044-.044.086-.044.044-.043 0-.043.044-.086 0-.044.044-.044.044-.044.043-.043.086-.043.173-.086.044 0 .044-.044.044-.044.043 0 .043 0 .043-.043.173-.044.26-.217.39-.304s.217-.174.347-.26c.087-.087.217-.174.304-.217l.087-.087c.043 0 .043-.044.043-.044s0-.043.044-.043c.043 0 .086-.043.086-.043.044 0 .044-.043.087-.087.087-.044.13-.087.174-.087.13-.086.26-.216.434-.26h-.044c.044 0 .044 0 .044-.043 0-.044.086-.087.13-.087.043-.043.086-.087.13-.087.087-.043.13-.087.173-.13l.13-.13c.043-.043.043-.043.087-.043.043 0 .043-.044.087-.044.043 0 .043-.043.086-.043.044-.044.087-.044.13-.044v-.043c.044-.043 0-.043 0-.043s.044-.044 0-.087c0-.044.044-.044 0-.087v-.087c.044-.043 0 0 0-.043v-.13c-.043 0-.043-.087 0-.087 0 0 .044 0 .044-.043 0-.044-.043-.044-.043-.044V29.761c0-.044.043-.174-.044-.174 0-.043-.043 0-.043 0-.044-.043-.044 0-.087 0 0 0-.043.043-.043.086-.044 0-.087.044-.087.044-.044.044-.044.044-.086.044 0 0-.044 0-.088.043-.043.043-.043.043-.043.086-.043.044-.086 0-.086.044-.044 0-.044.043-.088.086l-.043.044-.043.043h-.087s0 .044-.044.044h-.042c0 .086-.087.043-.13.086-.044 0-.087.044-.131.044h-.13c-.043 0-.043.043-.043.043h-.044v.044c0 .043-.086 0-.086 0-.044 0-.087.043-.131.043-.043.043-.086 0-.086.043-.044.044.043.044.086.044 0 .043-.086 0-.13 0h-.173v-.044s0-.043-.044 0v.044h-.13c-.087 0-.174.043-.217.043h-.217c-.043 0-.087.044-.087.044h-.13v.043c-.043 0-.13-.043-.173 0h-.39c-.044 0-.044-.043-.087-.043h-.13c-.044 0-.044 0-.087-.044-.044 0-.044-.043-.087-.043v.043c-.043 0-.043-.043-.043-.043l-.044-.044c-.303-.043-.347-.043-.39-.086-.087-.044-.174-.087-.217-.174l-.044.043v-.043l-.13-.13c-.043-.044-.13-.087-.173-.174 0-.043-.044-.043-.087-.086v-.087c0-.044-.044-.044-.044-.087-.043-.043-.043-.043-.043-.086.043-.044-.043-.13-.043-.13 0-.044 0-.087-.044-.13 0-.044-.043-.044-.043-.087v-.087c0-.087 0-.217-.044-.304v-.13c0-.043-.043-.087-.043-.13v-.13h.043v-1.952c0-.044-.043-.044-.043-.087-.043-.044.043-.217 0-.217v-.391c0-.043.043-.086.043-.086 0-.044.044-.044.044-.087v-.868c0-.044.043-.13 0-.173v-.044l.043-.044v-.259c0-.044.044-.044.044-.087v-.217c0-.043.043-.13.043-.174.043 0 0-.043 0-.043V23.6c0-.043 0-.087.043-.13 0-.13.044-.217.044-.304 0-.043.043-.086.043-.173.044-.044 0-.13.044-.13 0-.044.043-.13.043-.174 0-.043.043-.087.043-.13 0-.044 0-.087.044-.13 0-.043 0-.087.043-.13v-.044c0-.043.044-.043.044-.043v-.087s.043-.044.043-.087c0 0 .043-.043.043-.086 0-.044.044-.087.044-.174 0-.043 0-.043.043-.087.044-.043 0-.043.044-.086 0 0 0-.044.043-.087 0 0 0-.043.043-.043 0-.044 0-.044.044-.087h.043V21.3l.044-.043c0-.044.043-.044.043-.087v-.087h.043c0-.043 0-.087.044-.087 0-.043.043-.043.087-.086 0-.044.043-.087.043-.087s.043 0 .043-.044c0 0 0-.043.044-.043l.043-.043c0-.044.087-.13.087-.13 0-.087.087-.13.13-.174 0 0 0-.087.043-.087l.044-.043v-.044l.087-.087.042-.043s0-.043.044-.043h.044s0-.043.043-.043l.043-.044.087-.087c.044-.086.173-.13.26-.174.087-.086.13-.13.26-.216l.087-.087h.087s0-.043.043-.043c0 .043.044 0 .044-.044h.087l.086-.086.044-.044.043-.043c.044-.044.087-.044.13-.044.044 0 .044-.043.087-.043.044 0 .087 0 .087-.043 0 0 0-.044.043-.044.044 0 .044 0 .087-.043.044-.043.087-.043.13-.043.087 0 .13-.044.174-.044h.043s.087 0 .087-.043h.26c.044 0 .044.043.087.043h.043c.043 0 .043.044.087.044h.087s.043 0 .086.043c0 0 0 .043.044.043s.044.044.044.044c0 .043.042.043.042.086v.087c0 .044.044.044.044.087s0 .043.043.087v.173c-.043 0-.043.087-.043.13 0 0-.044 0-.044.043.044 0 .044.044.044.088 0 .043-.086.13-.086.173v.087l-.044.043c0 .043-.044.13 0 .13 0 .044-.087.087-.087.087l-.043.043c-.043.044 0 .044-.043.044 0 0-.044.043 0 .043 0 .044-.044 0-.088.044 0 0 0 .043-.043.086 0 0 0 .044-.043.044 0 .043-.043.087-.043.087-.044.043-.044.043-.088.043-.042 0-.042.043-.086.043-.043 0-.043 0-.087.044v.087c-.043-.044-.086.086-.13.13-.043.043-.043.13-.043.173h-.044c0 .087-.043.087-.086.13-.044 0-.044.044-.044.087-.043 0-.086.044-.043.087 0 .043-.043.087-.043.13l-.044.087c0-.044-.087 0-.087.043 0 .044 0 .13-.043.087v.087c-.043 0-.043.043-.043.086-.087 0-.087.13-.087.217s-.044.13-.044.217-.086.13-.13.174c-.043.043-.043.086-.087.173-.043.087-.043.13-.043.217 0 .044 0 .13-.043.174-.044.043-.044.043-.044.087-.043.043 0 .086-.043.086v.087c0 .043 0 .043-.044.087 0 .043-.043.087-.043.13v.087c0 .043.043.26-.043.26-.044 0-.044.043 0 .087v.087c0 .043-.044 0 0 .043l.043.043c0 .044-.043.087.043.087 0 .044.044.13.044.174 0 .043-.044.13-.044.173v.087c0 .043-.043.043-.043.043v.13c0 .044-.043.044 0 .087v.304c-.043.13-.043.26-.043.39v.174c0 .087 0 .13-.044.173-.043 0-.043.044-.087.044v.087c0 .043 0 .043.044.086 0 .044.043.087.043.13l-.043.044c0 .043.043.043.043.043v.087c-.043.13-.043.217 0 .347 0 .13.044.26.087.347 0 .044 0 .044.043.087v.086c0 .044.044.087.087.13l.13.131c.044.043.044.043.087.043.044 0 .087.044.087.044.043 0 .043.043.087.043h.26c.087-.043.217-.043.304-.043.043 0 .043-.044.087-.044.043 0 .086 0 .086-.043.044 0 .044 0 .087-.044.044 0 .044 0 .086-.043.044 0 .044-.043.088-.043 0 0 .043-.044.086-.044 0 0 .043 0 .043-.043v-.044l.044-.043h.044c.043 0 .086-.043.086-.086l.173-.174c.044-.043.044-.087.087-.087.13-.217.217-.39.26-.65.044-.044.044-.13.044-.174.043-.043.043-.043.043-.087v-.087c.044-.13.044-.26.087-.347 0-.086 0-.13.043-.217 0-.043 0-.13.044-.217 0-.043 0-.043.043-.043v-.087c0-.087 0-.173.044-.304v-.65c0-.087.043-.13.043-.174 0-.086.043-.13.043-.173v-.173c0-.087.044-.131.044-.218 0-.043 0-.13.043-.216v-.217s-.043-.044 0-.087v-.261s-.043.044-.043 0v-.086c.043-.087.043 0 .087-.044v-.13c0-.043.043-.086.043-.13V21.648c0-.087 0-.13.043-.217v-.39c.044-.087.044-.13.044-.174v-.694c0-.044.043-.044 0-.087V20c0-.044.043-.088.043-.174v-.477c0-.044 0-.13.044-.174v-.217c0-.043.043-.13.043-.173v-.217s0-.044.043-.087v-.087c0-.043.044-.13.087-.173v-.044l.044-.043v-.044h.043c0-.043.087-.086.087-.13.043-.043.043-.087.087-.087l.086-.086.087-.087h.044c0 .043.043 0 .086-.044v-.043h.087s.043 0 .043-.043c.087 0 .087-.044.13-.044.13-.043.26-.086.39-.043h.218c.043 0 .13.043.216.043.131.044.261.044.304.174.044.043.087.043.13.087 0 0 .044.043.044.087.043.043.043.043.043.086.044 0 .087.087.044.13 0 0-.044.044 0 .044h.086s0 .043-.043.043-.043 0-.043.044c0 .043.043.043.043.043.043.043 0 .043-.043.087v.217s-.044.043-.044.087c0 .043.044.043.044.086v.087-.13.087c0 .043 0 .13.043.13 0 0 .044 0 .044.043v.044c-.044.043-.044 0-.087.043v.087c.043 0 .043.043.043.043v.087c.044.043 0 .087-.043.087-.044 0-.044.13-.044.173v.087c0 .043.044.043 0 .086 0 .044-.043.044-.043.088l.043.043c.044.086-.043.086-.043.13-.043.044 0 .044 0 .086 0 0 .043.044 0 .087v.087c0 .043 0 .043.043.087 0 .043-.043.043-.043.087v.043h-.043c-.044.043 0 .043 0 .043v.087c-.044 0 0-.043-.044-.043-.043 0-.043.043-.043.087 0 .043.087.043.043.087h-.043c-.044 0 0 .086 0 .13 0 .043-.044.087 0 .087.043.043.043.043.043-.044.087.044-.043.087-.087.087v.347c0 .043-.043.087-.043.087 0 .043.043.043.043.087-.043.043-.043.043-.043.086 0 0 .043 0 .043.044v.693c-.043.174-.043.347-.043.521 0 .174-.043.39-.043.564-.044 0 0 .13 0 .13v.174c0 .087 0 .13-.044.174 0 .043-.043.086 0 .13l-.043.043v.087c0 .043 0 .087-.044.13v.26c0 .087-.043.173-.043.26v.13c0 .044-.043.044 0 .044.043.086-.043.13-.043.173-.044.044-.044.13-.044.174v.26h.087c0 .044-.043.044-.043.044-.044.043-.044.043-.044.086v.477l-.043.044c.043.044.043 0 .043.044l-.043.043c-.044.043 0 .043-.044.043v.26c.044.044.087.044.087.087v.131c0 .043-.043.043 0 .043v.087c0 .043 0 .086-.043.13-.044 0-.044.043-.044.043.044 0 .087 0 .044.044h-.044c0 .043-.043.173.044.173 0 0-.087.086 0 .086 0 .044 0 .087-.044.131-.043.043.044.043.044.13v.043l.043.044v.13c-.043 0-.043 0-.043.043v.044c.043 0 0 0 0 .043v.26c0 .044-.044.13 0 .174 0 .043.043.087 0 .174-.044.043 0 .086 0 .173V29.24c0 .043.043.087.043.173 0 0 .13-.043.174-.043.043 0 .043-.043.087-.043 0 0 0-.044.043-.044l.043-.043.044-.043h.043s0-.044.044-.044l.043-.043c.043 0 .043-.044.087-.044 0-.043 0-.043.043-.043.044 0 .044 0 .087-.043.043-.044.087-.044.174-.087 0 0 .043 0 .043-.043.043 0 .043-.044.087-.044.043-.043.086-.043.13-.087.043 0 .087-.043.173-.086.044 0 .044-.044.087-.044.044-.043 0-.043.086-.043 0 0 .044 0 .088-.044.043 0 .043-.043.086-.043.13-.13.304-.173.434-.304.26-.13.52-.303.738-.477l.39-.26c.13-.043.26-.174.39-.217 0-.043.087-.043.087-.087.044 0 .044-.044.087-.087.044 0 .044 0 .086-.043.044 0 .044-.043.088-.043.043-.044.086-.087.13-.087.043 0 .087-.043.173-.087l.13-.13c.043-.043.043-.043.087-.043.043 0 .087-.044.13-.044.043-.043.087-.087.13-.087.044-.043.087-.043.13-.086 0 0 0-.044.044-.044l.087-.086c.043-.044.086-.044.13-.087.043-.044.087-.087.173-.087.044 0 .13-.043.174-.043.087-.044.13-.044.174-.087.043 0 .086-.043.13-.087l.043-.043c.044-.044.044 0 .087 0s.087-.044.13-.087c0 0 .043 0 .043-.043 0-.044.087-.044.087-.044.044 0 .044.044.044.044.043 0 .043 0 .086-.044.044 0 .044-.043.087-.043s.043 0 .043-.044c.043-.043.043-.086.13-.086h.044v-.044h.043v-.043h.087c.044 0 .044-.044.044-.044.042-.043.042 0 .086 0 .043 0 .043-.043.087-.043.043 0 .043 0 .043-.043.043 0 .043-.044.087-.044 0 0 .043 0 .087-.043.043-.044.043-.044.086-.044.044 0 .044 0 .087-.043.044-.043.087-.043.13-.087.087-.087.217-.13.304-.216.044-.044.087-.088.13-.088h.087c.044 0 .044 0 .087-.043s.043-.086.13-.086c.044 0 .087-.044.13-.088.087-.042.174-.13.304-.13.043-.043.087-.043.13-.086.086-.043.13-.087.174-.087.086-.087.217-.13.303-.173.13-.044.217-.13.304-.174l.043-.043c.043 0 .087 0 .087-.044 0 0 0-.043.043-.043h.044c.043 0 .043-.043.043-.043.087-.044.217-.087.304-.174.087-.043.217-.13.304-.173 0-.044.043-.044.086-.044.044 0 .044-.043.087-.043.044 0 .087-.044.087-.044h.043c.044-.043.13-.086.174-.13.043 0 .043-.043.087-.043h.086c.044-.044.087-.044.13-.087.13-.043.217-.087.348-.174.043 0 .043-.043.086-.043.043-.043.043-.043.087-.043.044-.044.13-.044.173-.087l.651-.39c.087-.044.217-.13.304-.13.087-.044.13-.087.174-.087.043 0 .043-.044.086-.044l.044-.043c0-.043.043-.043.043-.043.044 0 .044 0 .087-.044.043-.043.087-.043.13-.087.043 0 .087-.043.13-.086.044-.044.13-.087.174-.13 0 0 .043 0 .043-.044.043 0 .086-.043.13-.087.044 0 .044-.043.044-.043.043 0 .043-.043.043-.087 0-.087-.043-.087-.043-.087-.088-.043-.13-.043-.174-.086l-.043-.044c-.044 0-.044-.043-.087-.043-.043-.043-.087-.087-.087-.13 0-.044-.043-.044-.043-.087s-.044-.043-.044-.087v-.087l-.043-.043c0-.043-.043-.043-.043-.087v-.087c0-.043-.044-.086-.044-.173V19.175c0-.043 0-.043-.043-.087 0-.043 0-.086.043-.13v-.13s.044 0 .044-.043V18.264c.043-.043.043-.13.043-.217s0-.13-.043-.173c0-.044-.044-.087-.044-.13.044-.087.044-.13.044-.26v-.087c0-.044.043-.044.043-.088.043-.043.043-.086.043-.173v-.044l-.043-.042c-.043-.044 0-.087 0-.13v-.044l-.043-.043c0-.044 0-.087.043-.087 0 0 .043 0 .043-.044v-.086h-.043v-.13h.043v-.304c0-.13 0-.26.044-.391 0-.043-.044-.13 0-.173v-.174c-.044 0-.044 0-.044-.043h.044V14.273c0-.043-.044-.087 0-.087v-.043h-.044c-.043 0-.043-.043-.043-.087 0-.043-.043-.043-.043-.087-.087-.086-.174-.173-.304-.173h-.174l-.043-.044h-.043v-.043h-.131c-.043.043-.086 0-.13 0-.043 0-.087.043-.13.087-.043.043-.043 0-.087.043-.043 0-.043.044-.087.044-.043 0-.086 0-.086.043-.044 0-.044.043-.044.043-.043.044-.043.13-.13.13-.043 0-.043 0-.087.044-.043 0-.043 0-.043.043l-.044.044c-.042 0-.042 0-.042.043v.087c-.044.043-.088.043-.13.043 0 .044 0 .13-.044.174l-.043.043c-.044 0-.044.043-.088.043l-.13.13-.087.087c-.042.043-.042.043-.042 0v-.043h-.044l.044.043c0 .043 0 .13-.044.174-.043.043-.087.086-.13.086-.043 0-.043 0-.087.044-.043 0-.043.043 0 .087v.173c0 .044 0 .044-.043.087v.087h-.044v.087h-.043c-.043 0-.043.043-.043.043 0 .043 0 .043.043.087 0 .043-.043.043-.043.087 0 .043.043.086 0 .086v.087c0 .043.043.043 0 .087 0 .043 0 .043-.044.043 0 0-.086.087-.043.087 0 .043.087 0 .087.043.043.044 0 .087-.044.087h-.086c.086-.043-.044-.087-.044-.043v.087h-.043c-.044 0-.044 0-.044.043-.043.087.044.087.087.087h.044c0 .043-.044.043-.044.043 0 .043-.043.043-.043.043 0 .044.043.044.043.044 0 .043-.087.043-.13.043 0 .044.043 0 .087 0 .043 0 .043.044.043.044 0 .043-.087.043-.13.043-.043 0-.087.043-.087.087 0 0 .044.043.044.087v.086c0 .044.043 0 .043.044 0 .043 0 .043-.043.086.043 0 .043.043.086.043l.044.044c.043.044.043.087 0 .13-.044.043 0 .13-.087.087h-.087s0 .043.044.043c.043.087-.087.044-.13.087.043.043.043.043.043.087.043 0 0 .043 0 .043-.044 0-.044-.043-.087-.043v.13c0 .043 0 .043.043.043 0 .044.044.087.087.087h.044v.044c0 .043 0 .043.043.086 0 .044-.043 0-.043.044 0 .043.043.043.043.043v.087c0 .043-.043.043 0 .087 0 0 .043 0 .043.043.044 0 .044.044 0 .044-.043 0-.043 0-.086.043 0 0-.044.043-.087 0v-.13c-.044-.044-.044.043-.044.043v.087s.044 0 .044.043c0 0-.13.087-.044.087 0 .043-.043.043-.043.13 0 0 .043 0 .043.044 0 0 0 .043.044.043-.044.043.043.043 0 .087h-.044c-.043 0-.043 0-.043.043v.824c0 .043.043.043.043.043s-.043.044-.043.088c0 .042.043.042.043.042.044 0 .044-.086.044-.042h.087c0 .042 0 .086-.044.13-.043 0-.087 0-.087.043s.044.043.044.086c0 .044-.044 0-.044.044-.043.043 0 .043 0 .087 0 .043 0 .043.044.086h.043v.044h-.13c-.043.087.087.043.087.043 0 .044.043.044.043.044v.086c0 .044-.043.044-.087.13v.131c0 .043-.043.043-.043.087 0 .043 0 0 .043 0v.043c0 .043 0 .043.044.087 0 .043.043.087 0 .087-.044 0-.044-.131-.087-.131 0 .044.043.087.043.13 0 .044 0 .087.044.13.043.044.043.044.043.088v.13c-.043 0-.043 0-.087.043 0 0 .044 0 0 .043l-.043.044c0 .043-.043.043-.087.043-.043.044.087.087-.043.087v.043l-.044.044v.043l-.043.043c0 .043.087.043.043.043h-.043v.044h-.043c.043 0 0 0 0 .044l.043.043v.13c0 .044-.174.044-.13.087.043.043-.087.043-.087 0 0 .043-.043.086-.043.086-.044 0-.044.044-.044.044s0 .043-.043.043h-.087c-.043.043-.043.043-.087.043l-.043.044c-.044.043-.13.043-.13.043l-.044.044h-.043c-.043 0-.043.043-.086.043-.044 0-.044 0-.088.043 0 .044-.043.044-.086.044-.087.043-.173.087-.26.087-.087.043-.174 0-.26.043-.087.043-.174 0-.217 0h-.217c-.087 0-.131-.043-.217-.13-.087-.044-.13-.087-.174-.174 0-.043 0-.087-.043-.13l-.044-.043v-.087c-.043-.086-.043-.174-.043-.217v-.304c0-.043.043-.043 0-.043 0-.043-.044-.043 0-.086V21.43l-.044-.043c0-.044.044-.087.044-.13v-.478c0-.043.043-.087 0-.087v-.216c.043 0 0-.087 0-.13 0-.044.043-.13 0-.174h-.044c0-.044 0-.044.044-.087v-1.345c0-.043.043-.043.043-.043l-.043-.043c0-.044.043-.087.043-.087v-.304c0-.043 0-.13.044-.174 0-.043-.044-.043 0-.086-.044 0-.044-.087-.044-.13v-.26c.044-.088.044-.088.044-.13V16.615l.043-.044c0-.043-.043-.043-.043-.043V15.705c.043-.13.043-.217.043-.348 0-.13 0-.26.043-.39v-.217c0-.087 0-.13.044-.217 0-.13.043-.217.087-.347.043-.086.043-.13.043-.173 0-.044.043-.13.087-.174.043-.043.043-.087.087-.13 0-.043.043-.087.086-.13l.13-.13c.044-.044.087-.13.13-.13.087 0 .087-.087.087-.087h.044v-.044h.043v-.043c.044 0 .044-.043.087-.043.043-.044.087-.087.174-.087.042 0 .13-.087.173-.087h.043c.043 0 .087 0 .087-.043.173-.087.39-.13.564-.13.087 0 .13 0 .173.043.044 0 .13.043.174 0 .043 0 .043-.044.043-.044.044 0 .044-.043.087-.043h.261c.043 0 .043 0 .043.043 0 .044 0 .044.043.044h.13c.044 0 .044 0 .087.043h.347c.044 0 .044 0 .087-.043 0 0 .044-.044.086-.044.044 0 .044 0 .088-.043.043 0 .086-.043.13-.086.043 0 .087-.044.13-.088 0-.043 0-.043.043-.043l.043-.043c.044-.043.088-.043.13-.087.044-.044.044-.087.044-.13 0-.043.043 0 .087-.043 0 0 0-.044.043-.044.043-.086.13-.173.217-.217.043-.043.043-.043.087-.043l.043-.043c.044-.044.044-.087.087-.13.043-.087.087-.087.13-.13.044 0 .044-.044.087-.044.043-.043.043-.043.043-.087.044-.043.087-.087.13-.087.044-.043.13-.043.13-.086.131-.044.218-.13.305-.174l.173-.087c.043-.043.087-.043.13-.043.044 0 .044-.043.087-.043.043-.044.13-.044.173-.044.043 0 .043 0 .087-.043H48.684c.044 0 .044 0 .086-.044.044 0 .131-.043.174-.043h.217c.087 0 .13 0 .217.043.043 0 .13 0 .174.044.13.043.217.087.303.13.044 0 .044.043.087.043.044 0 .044.044.087.087.043.044.087.13.087.13 0-.043.087-.13.087-.043v.13c.043 0 .043.043.086.087v.043c0 .044 0 .087.044.13.043.044.043-.043.086-.043 0 0-.043.043-.043.087 0 .043.043.086.043.173v.087h.087c.044 0 .044.087.087.13 0 .044-.087 0-.087 0-.043.044-.043.13 0 .217 0 .043 0 .043.044.043.043.043 0 .087.086.087h.087c0 .044-.043 0-.043.044 0 .043-.044.043-.044.043v.13c0 .044 0 .044.044.044 0 .043 0 .043.043.043h.044v.043h-.044c-.043 0-.043.043-.043.043h-.087l-.043.044c-.044.087-.044.13-.044.173v.087c0 .043 0 .043.044.043v.087l-.044.044v.087s.044 0 .044-.044c.043-.043.086-.13.086-.087v.044s-.043 0-.043.043v.261c.043 0 0 .086.087.043 0 0 0 .043-.044.043l-.043-.043c-.043 0-.043.043-.043.043 0 .044.043.044.043.044v.086s-.087 0-.087.044h.087c0 .043-.043 0-.043.043v.044h-.044c-.043.043 0 .043.044.086v.087c0 .044 0 .044.043.087v.043h-.174c0 .044-.043.13 0 .174 0 .043.044.043.087.087.044 0 .044 0 .044.043s-.044.043-.087.043c-.044 0-.044 0-.044.044v.086h.044v.043c0 .044.043.044.087.044 0 .044-.044 0-.044 0h-.087v.13l.044.043c0 .044-.044.044-.044.088v.997c0 .044 0 .044.044.044.043 0 .043.043.043.043 0 .043.044.043 0 .087h-.087v.173c0 .044 0 .044.044.087.043 0 .087 0 .043.044 0 .043-.043 0-.087.043v.173s.087 0 .087.044c.044 0 .044.043 0 .087 0 .043-.043 0-.043.043 0 0 0 .043.043.043v.044l.044.043c0 .044 0 .044.043.044v.042l-.043.044v-.086c-.044-.044-.044.042-.044.042s0 .044-.043.044c0 0-.044 0 0 .044v.259c0 .044 0 0-.044 0-.043 0 0 0 0 .044v.173c0 .044.044.044.087 0 0-.043-.043-.043 0-.043.044-.043.044 0 .044.043v.087c0 .044-.044 0-.087 0-.044 0-.044.044 0 .044 0 0 .087 0 .043.043h-.087c-.043.043 0 .13.044.13h.043c0 .044 0 .044-.043.087-.044 0-.044-.043-.087 0-.043 0-.043.043-.043.087.043.043.043.043.043.087 0 0 0 .043-.043.086v.131h-.044c0 .043.044.043.087.043s.043 0 .087.043c0 0-.13.13-.044.13v.087c.044.044.044 0 .087 0 0 0 0 .044.044.044h.043v.087c0 .043-.043.086-.087.086-.043 0-.043.044 0 .044h.044-.044c.044.043 0 .043.044.043.043 0 .043 0 .086-.043.044 0 .044.043.087.043v.043c-.043.044-.043.087 0 .087.044 0 .044-.043.044 0v.044h-.044s.044.043.044 0c.042 0 .086 0 .13.043.043.043 0 .087.043.13.043.044.043.087.13.087.044 0 .087.043.087.043h.13c.13 0 .217-.043.347-.086.043 0 .13-.044.173-.044.044 0 .13-.043.13-.087h.087c.044 0 .087-.043.13-.086.044 0 .087-.044.13-.087 0 0 .044 0 .044-.044.044 0 .087 0 .087-.043h.087c.043 0 .087 0 .043-.043l.044-.044s0 .044.043 0v-.043l.087-.043s.043 0 .043-.044c.043 0 .043-.043.043-.043.044-.044.087 0 .13-.044h.044c0-.043.043-.043.043-.086h.087s0-.044.044-.044c.042 0 .042 0 .042-.043.044-.044.13-.044.174-.087.043-.043.087-.043.13-.087.044-.043.087-.043.13-.087.044 0 .13-.043.13-.086h.044c.043 0 .043-.044.087-.044h.086l.044-.043c.043-.044.087-.087.13-.087.087-.043.217-.087.304-.13 0-.044.043 0 .043-.044.087 0 .13-.043.174-.043.043 0 .087 0 .13-.043H55.582c.087 0 .087.043.13.043h.26c.043.043.043.043.087 0 0-.043-.044-.043-.044-.087.044 0 .044.044.088 0 .042 0 .042.044.042.087s.087.043.087.043v-.043l.044.043c.043 0 .043.044.043.044.043 0-.043.043.043.043h.044s.043 0 .043.044c.044.043.044.043.044.086 0 .044 0 .044.043.087 0 .044.043 0 .043.087 0 .043 0 0 .044.043 0 .044.043.044.043.044.044.043 0 .043.044.043v.304h.043v.043c0 .044.043 0 .043.044 0 .043-.043.043-.043.043 0 .044.043.044.043.044h.044v.043c-.087.087-.044.087-.087.087m-19.826 5.77c-.043-.044-.043-.13-.043-.174v-.694c0-.043.043-.043.043-.087v-.607c0-.087 0-.13.044-.174 0-.043.043-.217.043-.304v-.13s.043-.043.043-.087v-.043c-.043-.043 0-.043 0-.043v-.087l.044-.044v-.346l.043-.044v-.173c0-.044.044-.087.044-.13v-.825h.043v-.043h-.043v-.043l.043-.044s0-.043-.043-.043l.043-.044v-.303h.043l-.043-.044v-.043h.043c0-.044 0-.044-.043-.044V20s.043-.043.043-.087v-.129l-.043-.044s0-.044.043-.087v-.26s.044-.043.044-.087v-.086s-.044 0-.044-.044v-.043h.044l-.044-.044v-.086l-.043-.044v-.477c-.043-.043 0-.043 0-.043v-.695s0-.086.043-.086v-.304s.044-.044.044-.087v-.174h.043s-.043 0-.043-.042h.043v-.044s.044-.087 0-.13l.044-.043.043-.13v-.087l.043-.044v-.086s.044 0 .044-.044c0 0 .043-.043.043-.087v-.043l.087-.087v-.043h.043s.044-.044.044-.087 0-.043.043-.087l.087-.086.087-.087c.043 0 .043 0 .043-.044l.043-.043v-.043h.044l.13-.13s.043 0 .043-.044l.087-.087.086-.043s.044 0 .044-.044c0 0 0-.043.044 0h.043c0-.043.043-.043.043-.043h.043l.044-.043h.087s.043 0 .043-.044h.087s0 .044.044.044l.13-.044H39.4s.043 0 .087.044h.087c.043 0 .043.043.043.043h.043v.043c0 .044.044.044.044.044v.087h.043v.086h.087l-.043.044v.087s.043 0 .043.043v-.043h.043v.043h.044v.087l-.044.043v.174s-.043 0-.043.043v.087c-.043 0-.043 0-.043.043l.043.044h-.087v.086l.044.044v.043c0 .044-.044.044-.087.087 0 0-.044 0-.044.043 0 0 0 .044.044.044v.043c.043 0 0 0 0 0h.087l-.044.043h.044v.087c0 .044.043 0 0 .044l-.044.043h-.043v.043s-.044 0 0 .044h.043v.043h-.087l.044.044v.042h.043l-.043.044h-.044l.26.087v.043l-.043.043s.044 0 0 0h.174c0 .044-.043 0-.043.044v.044h-.044v.043h-.043v-.043s-.044.043-.044 0h-.043v.086c0 .043 0 0 0 0v.13h-.043v.043c0 .044 0 .044.043.044v.043h-.043V17.96c.043 0 .043.044.043.044v.303h.043s0 .044-.043.044h.043c0 .043 0 0 0 0v.043h.044-.044l.044.044.043.043v.217c0 .043-.043.043-.043.087v.13l.043.043v.044h-.043v.043s.043 0 .043.043c-.043 0 0 .044-.043.044v.13c0 .043 0 0 .043.043v.044l-.043.043v.044s.043 0 0 .043v.087h.043v-.044.044s0 .043-.043.043c0 0-.044 0-.044.043v.173s.044 0 .044.044c0 0-.044 0 0 .043l.043.044c0 .044 0 0-.043 0 0 0-.044 0-.044.044 0 0 0 .042.044.042v.131c-.044.043-.044.086 0 .086 0 .044.043 0 .043.044v.043c-.043 0-.087 0-.087.044l.044.043-.044.043s.044.044 0 .044h-.043s-.043 0-.043.043v.13l.043.044h-.043s-.044 0-.044.043c0 0 0 .044.044.087v.174l.086.043.044.043s.043 0 .043.044l-.043.043v.087h-.044v-.043c0-.044-.043-.044-.043-.044h-.043s-.044.044-.044 0c0 0 .044 0 0-.043v-.044l-.043.044v.087h.043c.044 0 .044 0 .044.043v.087l.043.043c.043 0 .043-.043.043-.043.044 0 0 .043 0 .043v.087h-.043s-.087-.043-.13-.043h-.044V21.69l-.043.044s.043 0 .043.043l-.043.044c-.043.043 0 .13 0 .173 0 .043-.043.217 0 .303v.088c0 .043-.043.13 0 .173-.043.043 0 .043 0 .043v.608c0 .043 0 .086.043.086 0 0 .044 0 .044.044.043.043.043.043 0 .087v.043h.043c0 .043 0 .043-.043.043-.044.044-.044.044-.044.087v.044c.044 0 0 .043 0 .086-.043 0-.043.044 0 .044 0 .043-.043.087-.043.13 0 .043 0 .087-.043.13 0 0-.087 0-.087.043 0 .044 0 .087-.044.13-.043.044-.043.087-.086.13l-.174.174c-.043.044-.13.087-.13.13-.044.043-.044.087-.086.13h-.088v.044h-.086c-.043 0-.13.086-.13.086-.044.044-.087 0-.087.044v.043c0 .043-.043 0-.043 0-.044 0-.13.043-.174.087-.043.043-.217.13-.26.173-.044 0-.26.087-.304.087-.043.044-.13.044-.217 0h-.173s-.087-.043-.174-.043c0-.044-.043-.044-.087-.087-.043-.043-.087-.043-.13-.087-.043-.043-.043-.087-.087-.13.044-.087 0-.173 0-.216m1.606-12.928c0-.044-.044-.044-.044-.087 0-.044.044-.087 0-.13v-.087l.044-.043v-.174h.043v-.087c.043.044.043-.087.043-.087 0-.043.043-.043.043-.086 0-.044.044-.087.088-.13v-.087c.043 0 .043-.044.043-.044s0-.043.043-.043c0-.044.043-.044.043-.087l.044-.043v-.044h.044c.042 0 .042 0 .042-.043v-.044c.044 0 .044 0 .044-.043l.043-.043c.044 0 .044-.044.087-.044s0-.043.043-.043c0 0 .044 0 .087-.044v-.043h.044s.043 0 .043-.043l.043-.044h.044l.043-.043.044-.043h.043c.043 0 .087-.043.087-.043l.043-.044c.044 0 .087 0 .087-.044.043 0 .043 0 .043-.043h.044c.043 0 .087-.043.13-.043.043 0 .087 0 .13-.043H40.658s.044 0 .044.043h.043c.044 0 .044.043.087.043h.13s0-.043.043 0c0 0 .043 0 .043.043v.044l.044.044.044.043v.043s.043 0 .043.043c.043.044.043 0 .043.044v.086c0 .044 0 .087.043.131v.13h.044l-.044.043c0 .044-.043.044-.043.087s-.043.087-.043.13v.13l-.043.044v.043l-.044.044s0 .043-.044.043l-.043.043c0 .044-.043.044-.043.044 0 .043 0 .043-.043.043 0 .044-.087 0-.087.044-.043.043-.043.086-.087.13l-.13.13c0 .043-.043.087-.043.087l-.087.086c0 .044-.043.087-.043.13-.044.044-.131.13-.217.174-.044.044-.087.044-.131.087l-.043.043v.044c-.043.043-.087 0-.087.043-.043 0-.087.043-.087.086-.043.044-.13.088-.173.088l-.044.043c-.043 0-.086.043-.13 0h-.087c-.043 0-.086.043-.13 0h-.173c-.087 0-.13 0-.217-.043-.044 0-.087-.044-.087-.044-.043 0-.086 0-.086-.044-.044-.043-.13-.086-.13-.173 0 0-.044 0-.044-.043v-.043c0-.044 0-.087-.043-.087v-.13" transform="translate(-559 -4454) translate(0 4334) translate(559 120)"/>
                    <path fill="#212121" d="M55.235 31.05H39.183c-2.039.045-3.644 1.65-3.687 3.688-.044 2.083 1.605 3.775 3.687 3.818h16.052c2.039 0 3.73-1.649 3.73-3.73 0-2.083-1.691-3.731-3.73-3.775" transform="translate(-559 -4454) translate(0 4334) translate(559 120)"/>
                    <path fill="#FAFAFA" d="M50.766 36.17c-.086 0-.13-.044-.13-.13v-2.126h-.52v2.256c0 .347.347.39.434.39.216 0 .347 0 .433-.086l-.086-.304h-.13zM54.28 35h-1.258c.044-.39.174-.738.651-.738.477 0 .65.347.607.738zm.564.087c0-.608-.26-1.172-1.128-1.172-.997 0-1.214.824-1.214 1.389 0 .694.217 1.301 1.257 1.301.434 0 .651-.044.868-.13l.087-.477c-.173.087-.52.173-.91.173-.478 0-.782-.217-.782-.824h1.736c0-.087.043-.217.086-.26zm-2.82 1.084c-.086 0-.13-.044-.13-.13v-3.21h-.52v3.34c0 .347.347.39.433.39.174 0 .348 0 .391-.086l-.043-.304h-.13zm-3.774 0c-.173 0-.39-.044-.52-.086v-.912c0-.39.13-.824.694-.824.39 0 .65.13.65.91 0 .912-.52.912-.824.912zm.303-2.342c-.476 0-.693.13-.823.303V32.83h-.52v3.6c.216.087.65.13 1.127.13.564 0 1.301-.173 1.301-1.388 0-.998-.434-1.344-1.085-1.344zm1.866-.434c.174 0 .304-.13.347-.304 0-.217-.173-.347-.347-.347-.173 0-.347.174-.347.347 0 .174.174.304.347.304zM45.43 36.17c-.39 0-.694-.13-.694-.954 0-.825.26-.955.694-.955.39 0 .737.174.737.955 0 .824-.346.954-.737.954zm0-2.3c-.65 0-1.258.261-1.258 1.346 0 1.084.608 1.344 1.258 1.344.651 0 1.258-.26 1.258-1.344 0-1.042-.563-1.345-1.258-1.345zm-1.692 2.3c-.086 0-.13-.044-.13-.13v-1.388c0-.695-.26-.824-.737-.824-.391 0-.781.26-.955.433-.087-.347-.347-.433-.694-.433s-.737.303-.867.39v-.347h-.564v2.603h.52v-1.822c.13-.13.52-.39.825-.39.216 0 .303.086.303.433v1.779h.52v-1.822c.174-.174.565-.348.825-.348.217 0 .304.087.304.434v1.432c0 .347.347.39.434.39.216 0 .347 0 .39-.086l-.043-.304h-.13z" transform="translate(-559 -4454) translate(0 4334) translate(559 120)"/>
                </g>
            </g>
        </g>
    </g>
</svg>
